<svg width="120" height="38" viewBox="0 0 120 38" fill="none" xmlns="http://www.w3.org/2000/svg">
<circle cx="18" cy="18" r="18" fill="#407BFF"/>
<path d="M28.672 28H25.056L23.04 22.464H14.176L12.16 28H8.64L16.608 6.88H20.704L28.672 28ZM15.136 19.68H22.08L18.624 9.824L15.136 19.68Z" fill="white"/>
<path d="M39.6173 6.56C41.5159 6.56 43.1586 6.92267 44.5453 7.648C45.9319 8.352 47.1053 9.39733 48.0653 10.784L45.7613 12.992C44.9506 11.7547 44.0333 10.8693 43.0093 10.336C42.0066 9.78133 40.8119 9.504 39.4253 9.504C38.4013 9.504 37.5586 9.64267 36.8973 9.92C36.2359 10.1973 35.7453 10.5707 35.4253 11.04C35.1266 11.488 34.9773 12 34.9773 12.576C34.9773 13.2373 35.2013 13.8133 35.6493 14.304C36.1186 14.7947 36.9826 15.1787 38.2413 15.456L42.5293 16.416C44.5773 16.864 46.0279 17.5467 46.8813 18.464C47.7346 19.3813 48.1613 20.544 48.1613 21.952C48.1613 23.2533 47.8093 24.384 47.1053 25.344C46.4013 26.304 45.4199 27.04 44.1613 27.552C42.9239 28.064 41.4626 28.32 39.7773 28.32C38.2839 28.32 36.9399 28.128 35.7453 27.744C34.5506 27.36 33.5053 26.8373 32.6093 26.176C31.7133 25.5147 30.9773 24.7573 30.4013 23.904L32.7693 21.536C33.2173 22.2827 33.7826 22.9547 34.4653 23.552C35.1479 24.128 35.9373 24.576 36.8333 24.896C37.7506 25.216 38.7639 25.376 39.8733 25.376C40.8546 25.376 41.6973 25.2587 42.4013 25.024C43.1266 24.7893 43.6706 24.448 44.0333 24C44.4173 23.5307 44.6093 22.976 44.6093 22.336C44.6093 21.7173 44.3959 21.1733 43.9693 20.704C43.5639 20.2347 42.7959 19.872 41.6653 19.616L37.0253 18.56C35.7453 18.2827 34.6893 17.888 33.8573 17.376C33.0253 16.864 32.4066 16.2453 32.0013 15.52C31.5959 14.7733 31.3932 13.9413 31.3932 13.024C31.3932 11.8293 31.7133 10.752 32.3533 9.792C33.0146 8.81067 33.9639 8.032 35.2013 7.456C36.4386 6.85867 37.9106 6.56 39.6173 6.56ZM52.4685 28V4.8H55.8925V14.56C56.4258 13.5573 57.1405 12.832 58.0365 12.384C58.9538 11.9147 59.9672 11.68 61.0765 11.68C62.2072 11.68 63.2205 11.904 64.1165 12.352C65.0338 12.7787 65.7592 13.4293 66.2925 14.304C66.8258 15.1787 67.0925 16.288 67.0925 17.632V28H63.6685V18.72C63.6685 17.1413 63.3378 16.0427 62.6765 15.424C62.0365 14.8053 61.2258 14.496 60.2445 14.496C59.5618 14.496 58.8792 14.6667 58.1965 15.008C57.5352 15.328 56.9805 15.8613 56.5325 16.608C56.1058 17.3333 55.8925 18.3147 55.8925 19.552V28H52.4685ZM81.529 17.728C81.529 16.6613 81.2303 15.84 80.633 15.264C80.057 14.6667 79.257 14.368 78.233 14.368C77.273 14.368 76.4517 14.592 75.769 15.04C75.0863 15.488 74.585 16.2133 74.265 17.216L71.385 16C71.7903 14.6987 72.5797 13.6533 73.753 12.864C74.9477 12.0747 76.4837 11.68 78.361 11.68C79.641 11.68 80.7717 11.8933 81.753 12.32C82.7343 12.7253 83.5023 13.344 84.057 14.176C84.633 15.008 84.921 16.0747 84.921 17.376V24.512C84.921 25.3013 85.3157 25.696 86.105 25.696C86.489 25.696 86.8623 25.6427 87.225 25.536L87.033 27.904C86.5423 28.1387 85.9237 28.256 85.177 28.256C84.4943 28.256 83.8757 28.1387 83.321 27.904C82.7877 27.648 82.361 27.2747 82.041 26.784C81.7423 26.272 81.593 25.6427 81.593 24.896V24.672L82.297 24.64C82.105 25.472 81.7103 26.1653 81.113 26.72C80.5157 27.2533 79.8223 27.6587 79.033 27.936C78.2437 28.192 77.4437 28.32 76.633 28.32C75.6303 28.32 74.7237 28.16 73.913 27.84C73.1237 27.52 72.4943 27.04 72.025 26.4C71.577 25.7387 71.353 24.928 71.353 23.968C71.353 22.7733 71.737 21.792 72.505 21.024C73.2943 20.256 74.4037 19.7333 75.833 19.456L82.041 18.24L82.009 20.64L77.497 21.568C76.601 21.7387 75.929 21.984 75.481 22.304C75.033 22.624 74.809 23.0933 74.809 23.712C74.809 24.3093 75.033 24.7893 75.481 25.152C75.9503 25.4933 76.569 25.664 77.337 25.664C77.8703 25.664 78.3823 25.6 78.873 25.472C79.385 25.344 79.8437 25.1413 80.249 24.864C80.6543 24.5653 80.9637 24.192 81.177 23.744C81.4117 23.2747 81.529 22.72 81.529 22.08V17.728ZM90.531 28V12H93.443L93.763 14.88C94.1897 13.8347 94.819 13.0453 95.651 12.512C96.5043 11.9573 97.5497 11.68 98.787 11.68C99.107 11.68 99.427 11.712 99.747 11.776C100.067 11.8187 100.334 11.8933 100.547 12L100.067 15.008C99.8323 14.9227 99.5657 14.8587 99.267 14.816C98.9897 14.752 98.6057 14.72 98.115 14.72C97.4537 14.72 96.803 14.9013 96.163 15.264C95.523 15.6053 94.9897 16.128 94.563 16.832C94.1577 17.536 93.955 18.432 93.955 19.52V28H90.531ZM110.415 28.32C108.815 28.32 107.407 27.9893 106.191 27.328C104.975 26.6667 104.025 25.7173 103.343 24.48C102.681 23.2213 102.351 21.728 102.351 20C102.351 18.272 102.681 16.7893 103.343 15.552C104.025 14.2933 104.964 13.3333 106.159 12.672C107.353 12.0107 108.708 11.68 110.223 11.68C111.78 11.68 113.103 12 114.191 12.64C115.279 13.28 116.111 14.1547 116.687 15.264C117.263 16.3733 117.551 17.632 117.551 19.04C117.551 19.424 117.54 19.7867 117.519 20.128C117.497 20.4693 117.465 20.768 117.423 21.024H104.559V18.4H115.919L114.223 18.912C114.223 17.4613 113.86 16.352 113.135 15.584C112.409 14.7947 111.417 14.4 110.159 14.4C109.241 14.4 108.441 14.6133 107.759 15.04C107.076 15.4667 106.553 16.1067 106.191 16.96C105.828 17.792 105.647 18.816 105.647 20.032C105.647 21.2267 105.839 22.24 106.223 23.072C106.607 23.904 107.151 24.5333 107.855 24.96C108.559 25.3867 109.391 25.6 110.351 25.6C111.417 25.6 112.281 25.3973 112.943 24.992C113.604 24.5867 114.127 24.0213 114.511 23.296L117.231 24.576C116.847 25.344 116.324 26.016 115.663 26.592C115.023 27.1467 114.255 27.5733 113.359 27.872C112.463 28.1707 111.481 28.32 110.415 28.32Z" fill="black"/>
</svg>
