<svg width="556" height="600" viewBox="0 0 556 600" fill="none" xmlns="http://www.w3.org/2000/svg">
<g clip-path="url(#clip0_2_20)">
<path d="M552.564 311.19C558.983 264.638 554.391 216.707 543.193 171.535C533.135 131 520.453 89.3793 490.936 60.9138C455.17 26.431 410.518 21.931 365.195 27.7759C275.501 39.3104 249.888 -3.10344 183.527 -0.534472C117.166 2.03449 58.9579 32.8793 40.3256 95.8621C21.6934 158.845 50.8053 224.397 36.8272 261.655C22.8491 298.914 -16.7268 336.207 6.55958 390.19C29.846 444.172 81.0729 486.586 199.91 496.862C318.747 507.138 422.279 512.293 489.811 444.172C526.326 407.259 545.723 360.741 552.564 311.19Z" fill="#407BFF"/>
<path opacity="0.7" d="M552.564 311.19C558.983 264.638 554.391 216.707 543.193 171.535C533.135 131 520.453 89.3793 490.936 60.9138C455.17 26.431 410.518 21.931 365.195 27.7759C275.501 39.3104 249.888 -3.10344 183.527 -0.534472C117.166 2.03449 58.9579 32.8793 40.3256 95.8621C21.6934 158.845 50.8053 224.397 36.8272 261.655C22.8491 298.914 -16.7268 336.207 6.55958 390.19C29.846 444.172 81.0729 486.586 199.91 496.862C318.747 507.138 422.279 512.293 489.811 444.172C526.326 407.259 545.723 360.741 552.564 311.19Z" fill="white"/>
<path d="M493.606 463.793L493.715 449.655L334.334 406.897L56.8026 509.414V524.138C56.7908 524.846 57.0066 525.537 57.4117 526.086C57.8975 526.715 58.5292 527.186 59.239 527.448L215.263 598.534C216.539 599.084 217.871 599.46 219.23 599.655C222.262 600.132 225.345 600.045 228.35 599.397C229.726 599.114 231.068 598.657 232.349 598.034L491.748 467.241C492.286 467.032 492.748 466.632 493.059 466.103C493.485 465.43 493.679 464.611 493.606 463.793Z" fill="white"/>
<path opacity="0.2" d="M493.06 466.138C493.482 465.469 493.675 464.656 493.606 463.845L493.716 449.707L334.334 406.897L226.945 446.552V599.586C227.413 599.586 227.898 599.448 228.35 599.345C229.726 599.062 231.068 598.605 232.349 597.983L491.748 467.241C492.282 467.041 492.743 466.654 493.06 466.138Z" fill="black"/>
<path opacity="0.2" d="M222.65 600.224V576.483H217.215V599.483C218.979 600.049 220.814 600.299 222.65 600.224Z" fill="black"/>
<path d="M493.606 463.793L493.715 449.655L334.334 406.897L56.8026 509.414V524.138C56.7908 524.846 57.0066 525.537 57.4117 526.086C57.8975 526.715 58.5292 527.186 59.239 527.448L215.263 598.534C216.539 599.084 217.871 599.46 219.23 599.655C222.262 600.132 225.345 600.045 228.35 599.397C229.726 599.114 231.068 598.657 232.349 598.034L491.748 467.241C492.286 467.032 492.748 466.632 493.059 466.103C493.485 465.43 493.679 464.611 493.606 463.793Z" stroke="#263238" stroke-miterlimit="10"/>
<path d="M412.065 432.086L391.652 426.379C391.35 426.292 391.042 426.235 390.731 426.207C390.403 426.207 390.059 426.207 389.731 426.207C389.417 426.217 389.105 426.246 388.794 426.293C388.534 426.338 388.278 426.407 388.029 426.5C387.856 426.558 387.699 426.665 387.576 426.81C387.551 426.861 387.538 426.917 387.538 426.974C387.538 427.031 387.551 427.088 387.576 427.138C387.649 427.284 387.765 427.399 387.904 427.465C388.119 427.595 388.351 427.688 388.591 427.741L409.004 433.5C409.318 433.577 409.636 433.635 409.956 433.672H410.971C411.29 433.657 411.608 433.622 411.924 433.569C412.185 433.529 412.441 433.459 412.689 433.362C412.854 433.296 413.004 433.19 413.127 433.052C413.156 433 413.171 432.94 413.171 432.879C413.171 432.818 413.156 432.759 413.127 432.707C413.044 432.559 412.925 432.439 412.783 432.362C412.558 432.243 412.323 432.151 412.08 432.086" fill="white"/>
<path d="M471.866 451.552L437.428 441.862H431.79C431.165 441.862 430.556 441.862 429.947 441.862C429.338 441.862 428.729 441.776 428.151 441.69C427.573 441.603 426.98 441.517 426.418 441.414C425.855 441.31 425.34 441.172 424.856 441.034L364.805 424.017L363.586 423.603C363.212 423.448 362.884 423.293 362.587 423.138C362.325 422.988 362.074 422.815 361.837 422.621C361.658 422.469 361.5 422.289 361.369 422.086L360.166 420.155L329.336 411.534L94.5512 500.862L242.735 563.5L471.866 451.552Z" fill="#C9C6F4" stroke="white" stroke-width="3" stroke-miterlimit="10"/>
<path d="M494.168 448.5C493.783 447.978 493.29 447.564 492.732 447.293C491.881 446.835 490.984 446.488 490.061 446.259L339.675 404.879C338.73 404.628 337.77 404.45 336.802 404.345C335.763 404.244 334.72 404.204 333.678 404.224C332.664 404.238 331.652 404.324 330.648 404.483C329.779 404.611 328.922 404.825 328.087 405.121L60.3947 505.362C59.4069 505.708 58.4664 506.201 57.5991 506.828C57.0114 507.203 56.5425 507.769 56.2559 508.448C56.1554 508.707 56.1198 508.991 56.1528 509.27C56.1858 509.549 56.2861 509.813 56.4434 510.035C56.9202 510.67 57.5473 511.148 58.255 511.414L215.278 581.603C216.554 582.159 217.886 582.541 219.245 582.741C222.277 583.219 225.36 583.131 228.366 582.483C229.742 582.2 231.083 581.743 232.364 581.121L492.981 450.845C493.523 450.624 493.988 450.22 494.309 449.69C494.385 449.496 494.412 449.283 494.387 449.073C494.362 448.864 494.287 448.666 494.168 448.5ZM242.719 563.5L94.5512 500.862L329.321 411.397L360.151 420.017L361.353 421.948C361.484 422.151 361.642 422.332 361.822 422.483C362.059 422.677 362.31 422.85 362.571 423C362.868 423.155 363.196 423.31 363.571 423.466L364.789 423.879L424.809 440.966C425.309 441.103 425.84 441.241 426.371 441.345C426.902 441.448 427.511 441.552 428.104 441.621C428.698 441.69 429.291 441.759 429.9 441.793C430.51 441.828 431.119 441.793 431.743 441.793H437.381L471.819 451.483L242.719 563.5ZM387.56 426.759C387.684 426.613 387.84 426.506 388.013 426.448C388.262 426.355 388.518 426.286 388.778 426.241C389.089 426.194 389.402 426.165 389.715 426.155C390.043 426.155 390.387 426.155 390.715 426.155C391.026 426.183 391.334 426.241 391.636 426.328L412.049 432.034C412.291 432.099 412.527 432.192 412.752 432.31C412.893 432.388 413.012 432.507 413.095 432.655C413.125 432.707 413.14 432.767 413.14 432.828C413.14 432.889 413.125 432.948 413.095 433C412.973 433.138 412.823 433.244 412.658 433.31C412.41 433.408 412.154 433.477 411.893 433.517C411.577 433.57 411.259 433.605 410.94 433.621H409.925C409.605 433.583 409.287 433.525 408.972 433.448L388.56 427.69C388.319 427.636 388.088 427.543 387.872 427.414C387.733 427.347 387.618 427.232 387.544 427.086C387.525 427.033 387.517 426.975 387.522 426.918C387.528 426.861 387.546 426.806 387.576 426.759H387.56ZM160.35 535.621C159.984 535.945 159.572 536.201 159.132 536.379C158.56 536.615 157.969 536.788 157.367 536.897C156.723 537.032 156.07 537.107 155.414 537.121C154.778 537.14 154.141 537.105 153.509 537.017C152.975 536.93 152.452 536.78 151.947 536.569C151.566 536.418 151.22 536.176 150.932 535.862C150.84 535.755 150.769 535.627 150.726 535.487C150.683 535.347 150.668 535.199 150.682 535.052C150.759 534.717 150.942 534.423 151.198 534.224C151.56 533.894 151.972 533.637 152.416 533.466C152.987 533.23 153.579 533.057 154.181 532.948C154.821 532.826 155.468 532.757 156.117 532.741C156.749 532.723 157.38 532.758 158.007 532.845C158.54 532.927 159.064 533.071 159.569 533.276C159.95 533.417 160.298 533.653 160.584 533.966C160.684 534.067 160.761 534.194 160.807 534.335C160.853 534.476 160.868 534.627 160.85 534.776C160.783 535.116 160.605 535.417 160.35 535.621Z" fill="#263238"/>
<path d="M159.553 533.276C159.048 533.071 158.524 532.927 157.991 532.845C157.365 532.758 156.733 532.723 156.102 532.741C155.452 532.757 154.805 532.826 154.165 532.948C153.563 533.057 152.972 533.23 152.4 533.466C151.957 533.637 151.544 533.894 151.182 534.224C150.926 534.423 150.744 534.717 150.667 535.052C150.652 535.199 150.667 535.347 150.711 535.487C150.754 535.627 150.824 535.755 150.917 535.862C151.204 536.177 151.551 536.418 151.932 536.569C152.436 536.78 152.96 536.93 153.493 537.017C154.125 537.105 154.762 537.14 155.399 537.121C156.054 537.107 156.707 537.032 157.351 536.897C157.953 536.788 158.544 536.615 159.116 536.379C159.557 536.201 159.968 535.945 160.334 535.621C160.583 535.414 160.756 535.113 160.818 534.776C160.836 534.627 160.822 534.476 160.776 534.335C160.729 534.194 160.653 534.067 160.553 533.966C160.266 533.653 159.919 533.417 159.538 533.276" fill="white"/>
<path d="M107.436 458.517L111.903 466.862" stroke="#263238" stroke-miterlimit="10"/>
<path d="M41.8094 335.983L102.391 449.086" stroke="#263238" stroke-miterlimit="10"/>
<path d="M158.679 434.345L161.224 441.069" stroke="#263238" stroke-miterlimit="10"/>
<path d="M141.327 388.517L155.836 426.828" stroke="#263238" stroke-miterlimit="10"/>
<path d="M443.738 329.638L411.815 416.224" stroke="#263238" stroke-miterlimit="10"/>
<path d="M451.625 308.276L447.674 318.948" stroke="#263238" stroke-miterlimit="10"/>
<path d="M469.336 414.448L462.37 422.914" stroke="#263238" stroke-miterlimit="10"/>
<path d="M514.284 359.862L476.302 405.983" stroke="#263238" stroke-miterlimit="10"/>
<path d="M130.941 445.845L156.898 501.241" stroke="#263238" stroke-miterlimit="10"/>
<path d="M449.392 411.448L420.826 454.431" stroke="#263238" stroke-miterlimit="10"/>
<path d="M266.802 411.448L273.721 449.655" stroke="#263238" stroke-miterlimit="10"/>
<path d="M141.311 66.8104C150.696 66.8104 158.304 58.4118 158.304 48.0517C158.304 37.6916 150.696 29.2931 141.311 29.2931C131.927 29.2931 124.319 37.6916 124.319 48.0517C124.319 58.4118 131.927 66.8104 141.311 66.8104Z" fill="white" stroke="white" stroke-width="0.5" stroke-miterlimit="10"/>
<path d="M146.95 46.7759H135.876C134.837 46.7759 133.84 47.2318 133.104 48.0434C132.369 48.855 131.956 49.9557 131.956 51.1035V61.4483C134.664 63.7771 138.005 65.0288 141.437 65.0006C144.87 64.9725 148.193 63.6661 150.87 61.2931V51.1897C150.88 50.6142 150.786 50.0421 150.594 49.5071C150.402 48.9721 150.115 48.4848 149.749 48.0737C149.384 47.6627 148.949 47.3362 148.468 47.1133C147.987 46.8905 147.471 46.7758 146.95 46.7759Z" fill="#407BFF"/>
<path d="M141.218 44.8966C144.332 44.8966 146.856 42.1099 146.856 38.6724C146.856 35.2349 144.332 32.4483 141.218 32.4483C138.104 32.4483 135.58 35.2349 135.58 38.6724C135.58 42.1099 138.104 44.8966 141.218 44.8966Z" fill="#407BFF"/>
<path d="M189.183 389.722C192.598 380.072 188.28 369.194 179.539 365.423C170.798 361.653 160.943 366.42 157.528 376.07C154.113 385.719 158.431 396.598 167.172 400.368C175.913 404.138 185.768 399.372 189.183 389.722Z" fill="white" stroke="white" stroke-width="0.5" stroke-miterlimit="10"/>
<path d="M178.998 381.638H167.909C166.873 381.638 165.88 382.092 165.148 382.9C164.416 383.709 164.004 384.805 164.004 385.948V396.207C166.71 398.534 170.048 399.785 173.478 399.757C176.908 399.729 180.228 398.423 182.902 396.052V385.948C182.902 384.805 182.491 383.709 181.759 382.9C181.026 382.092 180.033 381.638 178.998 381.638Z" fill="#407BFF"/>
<path d="M173.266 379.741C174.381 379.741 175.471 379.376 176.398 378.692C177.325 378.008 178.048 377.036 178.475 375.899C178.901 374.762 179.013 373.51 178.796 372.303C178.578 371.096 178.041 369.987 177.253 369.116C176.464 368.246 175.459 367.653 174.366 367.413C173.272 367.173 172.138 367.296 171.108 367.767C170.078 368.238 169.197 369.036 168.578 370.059C167.958 371.083 167.628 372.286 167.628 373.517C167.628 374.335 167.774 375.144 168.057 375.899C168.34 376.654 168.755 377.34 169.279 377.918C169.803 378.496 170.424 378.955 171.108 379.268C171.792 379.58 172.525 379.741 173.266 379.741Z" fill="#407BFF"/>
<path d="M395.275 331.907C461.555 258.738 461.555 140.106 395.275 66.9371C328.995 -6.23238 221.534 -6.23235 155.254 66.9371C88.9741 140.107 88.9741 258.738 155.254 331.907C221.534 405.076 328.995 405.076 395.275 331.907Z" fill="white"/>
<path opacity="0.18" d="M395.275 331.907C461.555 258.738 461.555 140.106 395.275 66.9371C328.995 -6.23238 221.534 -6.23235 155.254 66.9371C88.9741 140.107 88.9741 258.738 155.254 331.907C221.534 405.076 328.995 405.076 395.275 331.907Z" fill="black"/>
<path opacity="0.86" d="M275.267 279.466C238.734 279.462 203.176 266.451 173.875 242.363C144.574 218.275 123.093 184.397 112.621 145.759C105.069 173.724 103.538 203.249 108.15 231.983C112.762 260.717 123.39 287.864 139.188 311.261C154.985 334.658 175.514 353.659 199.139 366.748C222.765 379.837 248.833 386.653 275.267 386.653C301.701 386.653 327.769 379.837 351.394 366.748C375.02 353.659 395.549 334.658 411.346 311.261C427.143 287.864 437.772 260.717 442.384 231.983C446.996 203.249 445.465 173.724 437.913 145.759C427.439 184.395 405.957 218.272 376.656 242.36C347.355 266.447 311.799 279.46 275.267 279.466Z" fill="white"/>
<path d="M269.16 112.69L285.278 120.69L289.698 128.69L296.96 131.81L297.757 140.259L294.945 145.155L289.307 146.483L277.219 141.138V139.414L284.06 136.31L281.639 126.966L270.706 122.517L265.88 115.414L269.16 112.69ZM370.677 318.121L357.792 312.345L342.034 306.121H329.539L317.904 303.448L305.003 306.569L297.757 307H293.321L284.872 312.345L276.813 315.897L265.88 308.345L268.692 295.897L261.851 292.776H253.792L252.59 288.776L253.386 280.776L250.575 276.328L244.937 277.207L243.375 281.655L236.534 282.103L230.49 274.138L228.022 263.431L234.067 250.983L245.749 251.862L248.966 254.983H253.808L259.852 250.983L265.084 252.707L272.331 266.5L275.157 266.069L274.345 255.828L271.94 250.5L272.737 242.052L287.636 234.931L289.651 218.483L296.101 212.707L301.333 202.483L305.363 201.586L314.624 194.914L315.03 191.362L308.58 191.81L307.377 188.241H302.989L296.148 189.966L299.365 184.19L313.422 179.741L316.639 175.741L322.277 185.517L325.916 189.534L331.554 187.81L329.133 182.035L320.668 175.362L311.001 163.293L300.927 155.724L291.26 154L286.434 148.672L279.983 146.948L279.187 148.672L278.375 161.569L279.937 166.017L276.438 180.276L268.379 173.155L269.597 166.931L261.133 162.483L257.509 157.603L259.524 146.483L271.206 137.138L272.018 126.466L267.583 126.914L264.756 122.914L263.553 116.241L260.726 115.793L259.165 122.914L254.745 123.81L252.73 108.293L249.497 106.069L243.859 103.397L237.393 106.897L245.436 115.362L246.998 122.914L232.505 110.845L222.431 98.7759L221.635 86.7069L211.155 83.1552L203.034 89.1207C201.081 90.4293 199.063 91.6151 196.99 92.6724C193.81 93.5092 190.579 94.0855 187.322 94.3966L185.76 101.966L176.499 102.414L177.311 107.293L192.21 109.966L199.863 119.31V134.828L195.428 148.621L196.24 163.293L184.964 185.086L182.543 217.534L186.166 236.224L191.398 250.448L197.442 251.345L195.428 244.224L192.21 238.879L190.196 229.103L193.819 228.207L199.457 244.224L203.502 258.621V270.19L211.155 280.414L224.899 291.379L245.843 297.603L252.293 304.276L257.119 311.379L264.365 316.276L273.236 318.948L282.092 318.5C282.092 318.5 281.686 322.948 281.686 325.172C281.686 327.397 276.048 334.948 276.048 334.948L271.628 343.845L274.845 353.621L283.701 357.638L296.195 371.862L301.833 374.535V381.19L302.536 384.31C333.87 378.716 363.146 363.497 387.013 340.397L387.232 337.172L398.165 315.379L392.933 311.379L370.677 318.121ZM412.58 142.483L408.145 134.035L402.507 124.241L400.945 110.914L408.191 112.241L408.598 107.793L403.35 107.345L407.785 105.121L412.627 102.017V97.569L407.785 90.4483L406.755 80.8793C383.333 49.2498 351.197 26.9284 315.231 17.309C279.265 7.68949 241.438 11.2981 207.5 27.5862L216.793 34.8448L211.155 42.8621L203.502 44.5862L202.69 56.6552L199.473 57.9828L195.443 62.8793L195.849 70.8793L202.69 71.7759L199.91 79.3104H206.751L218.433 62.8621L219.651 55.7586L230.927 54.8621L233.739 49.5173L245.421 48.1897L246.639 40.6379L255.088 40.1897C255.088 40.1897 261.133 36.6379 262.351 36.6379C264.676 37.1912 266.962 37.9287 269.191 38.8448L275.236 44.1897H283.685L290.947 39.2931L300.209 40.1897C301.542 41.1462 303.062 41.7373 304.644 41.9138C306.659 41.9138 312.687 38.7931 312.687 38.7931L324.37 46.8104L329.211 50.8104V57.4828L335.255 58.3621L337.27 54.3621L342.502 57.0345L342.096 60.5862L330.008 64.1552L336.864 73.931L351.358 82.8276L357.402 91.7241L366.273 92.6035L368.288 88.1552L371.505 87.2759L361.025 78.3793L354.528 77.5862L359.76 75.8621L354.919 68.3104L361.775 67.8621L370.63 73.1897L372.645 83.8621L377.08 89.6552L380.704 102.552L389.559 109.655V124.328L398.836 131L398.43 135.897L397.212 141.672L399.633 149.672L400.445 153.69L407.286 155.017L410.519 147.448L412.58 142.483ZM417.812 97.6552V100.207L415.797 107.31L417 113.535L421.435 115.259V123.707L416.594 121.483L415.438 145.586L410.612 155.379L413.83 167.828L419.062 173.155V197.172L424.294 215.845L429.947 230.086L439.209 232.741L442.426 223.845L443.738 222.724C444.609 214.997 445.048 207.218 445.05 199.431C445.082 163.319 435.614 127.974 417.797 97.6897L417.812 97.6552ZM324.745 94.8276L298.194 81.9311L286.512 82.3793L283.685 90.8276L278.859 85.0517L270.004 87.2759L269.191 101.948L276.438 107.724L281.67 99.2759L287.714 105.948L300.209 118.017L302.63 130.914L313.094 145.586L330.008 142.483L329.617 135.81L325.994 128.241L325.182 110.466L329.211 102.897L324.745 94.8276ZM346.5 104.621L340.456 102.897L335.224 107.793L338.035 120.69H343.283L346.5 104.621ZM383.984 113.069L370.271 105.172L367.444 99.8448L364.227 101.172L367.038 110.069L369.459 121.638L375.503 124.293L376.706 122.569L373.082 115.897L383.562 120.345L383.984 113.069ZM266.365 273.586L264.803 275.31L276.891 279.31L281.717 285.534L289.385 286.431L292.197 281.534L282.935 279.81L266.365 273.586ZM302.286 282.034L293.821 284.707L295.039 288.259H305.503L307.518 284.707L303.895 285.155L302.286 282.034Z" fill="#407BFF"/>
<path opacity="0.65" d="M275.267 279.466C238.734 279.462 203.176 266.451 173.875 242.363C144.574 218.275 123.093 184.397 112.621 145.759C105.069 173.724 103.538 203.249 108.15 231.983C112.762 260.717 123.39 287.864 139.188 311.261C154.985 334.658 175.514 353.659 199.139 366.748C222.765 379.837 248.833 386.653 275.267 386.653C301.701 386.653 327.769 379.837 351.394 366.748C375.02 353.659 395.549 334.658 411.346 311.261C427.143 287.864 437.772 260.717 442.384 231.983C446.996 203.249 445.465 173.724 437.913 145.759C427.439 184.395 405.957 218.272 376.656 242.36C347.355 266.447 311.799 279.46 275.267 279.466Z" fill="white"/>
<path d="M269.16 112.69L285.278 120.69L289.698 128.69L296.96 131.81L297.757 140.259L294.945 145.155L289.307 146.483L277.219 141.138V139.414L284.06 136.31L281.639 126.966L270.706 122.517L265.88 115.414L269.16 112.69ZM370.677 318.121L357.792 312.345L342.034 306.121H329.539L317.904 303.448L305.003 306.569L297.757 307H293.321L284.872 312.345L276.813 315.897L265.88 308.345L268.692 295.897L261.851 292.776H253.792L252.59 288.776L253.386 280.776L250.575 276.328L244.937 277.207L243.375 281.655L236.534 282.103L230.49 274.138L228.022 263.431L234.067 250.983L245.749 251.862L248.966 254.983H253.808L259.852 250.983L265.084 252.707L272.331 266.5L275.157 266.069L274.345 255.828L271.94 250.5L272.737 242.052L287.636 234.931L289.651 218.483L296.101 212.707L301.333 202.483L305.363 201.586L314.624 194.914L315.03 191.362L308.58 191.81L307.377 188.241H302.989L296.148 189.966L299.365 184.19L313.422 179.741L316.639 175.741L322.277 185.517L325.916 189.534L331.554 187.81L329.133 182.034L320.668 175.362L311.001 163.293L300.927 155.724L291.26 154L286.434 148.672L279.983 146.948L279.187 148.672L278.375 161.569L279.937 166.017L276.438 180.276L268.379 173.155L269.597 166.931L261.133 162.483L257.509 157.603L259.524 146.483L271.206 137.138L272.018 126.466L267.583 126.914L264.756 122.914L263.553 116.241L260.726 115.793L259.165 122.914L254.745 123.81L252.73 108.293L249.497 106.069L243.859 103.397L237.393 106.897L245.436 115.362L246.998 122.914L232.505 110.845L222.431 98.7759L221.635 86.7069L211.155 83.1552L203.034 89.1207C201.081 90.4293 199.063 91.6151 196.99 92.6724C193.81 93.5092 190.579 94.0855 187.322 94.3966L185.76 101.966L176.499 102.414L177.311 107.293L192.21 109.966L199.863 119.31V134.828L195.428 148.621L196.24 163.293L184.964 185.086L182.543 217.534L186.166 236.224L191.398 250.448L197.442 251.345L195.428 244.224L192.21 238.879L190.196 229.103L193.819 228.207L199.457 244.224L203.502 258.621V270.19L211.155 280.414L224.899 291.379L245.843 297.603L252.293 304.276L257.119 311.379L264.365 316.276L273.236 318.948L282.092 318.5C282.092 318.5 281.686 322.948 281.686 325.172C281.686 327.397 276.048 334.948 276.048 334.948L271.628 343.845L274.845 353.621L283.701 357.638L296.195 371.862L301.833 374.535V381.19L302.536 384.31C333.87 378.716 363.146 363.497 387.013 340.397L387.232 337.172L398.165 315.379L392.933 311.379L370.677 318.121ZM412.58 142.483L408.145 134.035L402.506 124.241L400.945 110.914L408.191 112.241L408.597 107.793L403.35 107.345L407.785 105.121L412.627 102.017V97.569L407.785 90.4483L406.755 80.8793C383.333 49.2498 351.197 26.9284 315.231 17.309C279.265 7.68948 241.438 11.2981 207.5 27.5862L216.793 34.8448L211.155 42.8621L203.502 44.5862L202.69 56.6552L199.473 57.9828L195.443 62.8793L195.849 70.8793L202.69 71.7759L199.91 79.3104H206.751L218.433 62.8621L219.651 55.7586L230.927 54.8621L233.739 49.5173L245.421 48.1897L246.639 40.6379L255.088 40.1897C255.088 40.1897 261.133 36.6379 262.351 36.6379C264.676 37.1912 266.962 37.9287 269.191 38.8448L275.236 44.1897H283.685L290.947 39.2931L300.209 40.1897C301.542 41.1462 303.062 41.7373 304.644 41.9138C306.659 41.9138 312.687 38.7931 312.687 38.7931L324.37 46.8104L329.211 50.8104V57.4828L335.255 58.3621L337.27 54.3621L342.502 57.0345L342.096 60.5862L330.008 64.1552L336.864 73.931L351.358 82.8276L357.402 91.7241L366.273 92.6035L368.287 88.1552L371.505 87.2759L361.025 78.3793L354.528 77.5862L359.76 75.8621L354.919 68.3104L361.775 67.8621L370.63 73.1897L372.645 83.8621L377.08 89.6552L380.704 102.552L389.559 109.655V124.328L398.836 131L398.43 135.897L397.212 141.672L399.633 149.672L400.445 153.69L407.286 155.017L410.519 147.448L412.58 142.483ZM417.812 97.6552V100.207L415.797 107.31L417 113.535L421.435 115.259V123.707L416.594 121.483L415.438 145.586L410.612 155.379L413.83 167.828L419.062 173.155V197.172L424.294 215.845L429.947 230.086L439.209 232.741L442.426 223.845L443.738 222.724C444.609 214.997 445.048 207.218 445.05 199.431C445.082 163.319 435.614 127.974 417.797 97.6897L417.812 97.6552ZM324.745 94.8276L298.194 81.9311L286.512 82.3793L283.685 90.8276L278.859 85.0517L270.004 87.2759L269.191 101.948L276.438 107.724L281.67 99.2759L287.714 105.948L300.209 118.017L302.63 130.914L313.094 145.586L330.008 142.483L329.617 135.81L325.994 128.241L325.182 110.466L329.211 102.897L324.745 94.8276ZM346.5 104.621L340.456 102.897L335.224 107.793L338.035 120.69H343.283L346.5 104.621ZM383.984 113.069L370.271 105.172L367.444 99.8448L364.227 101.172L367.038 110.069L369.459 121.638L375.503 124.293L376.706 122.569L373.082 115.897L383.562 120.345L383.984 113.069ZM266.365 273.586L264.803 275.31L276.891 279.31L281.717 285.534L289.385 286.431L292.197 281.534L282.935 279.81L266.365 273.586ZM302.286 282.034L293.821 284.707L295.039 288.259H305.503L307.518 284.707L303.895 285.155L302.286 282.034Z" stroke="#263238" stroke-miterlimit="10"/>
<path d="M395.275 331.907C461.555 258.738 461.555 140.106 395.275 66.9371C328.995 -6.23238 221.534 -6.23235 155.254 66.9371C88.9741 140.107 88.9741 258.738 155.254 331.907C221.534 405.076 328.995 405.076 395.275 331.907Z" stroke="#263238" stroke-miterlimit="10"/>
<path d="M487.882 122.962C497.144 121.297 503.43 111.657 501.922 101.432C500.413 91.2066 491.682 84.2673 482.419 85.9326C473.156 87.598 466.871 97.2372 468.379 107.463C469.888 117.688 478.619 124.627 487.882 122.962Z" fill="white" stroke="white" stroke-width="0.5" stroke-miterlimit="10"/>
<path d="M490.779 103.19H479.691C479.176 103.19 478.667 103.302 478.193 103.519C477.718 103.737 477.287 104.056 476.924 104.458C476.561 104.86 476.274 105.338 476.079 105.862C475.883 106.387 475.784 106.95 475.786 107.517V117.776C478.491 120.103 481.829 121.354 485.259 121.326C488.689 121.298 492.01 119.992 494.684 117.621V107.517C494.686 106.95 494.586 106.387 494.391 105.862C494.196 105.338 493.908 104.86 493.546 104.458C493.183 104.056 492.752 103.737 492.277 103.519C491.802 103.302 491.293 103.19 490.779 103.19Z" fill="#407BFF"/>
<path d="M485.047 101.293C486.163 101.293 487.253 100.928 488.18 100.244C489.107 99.5602 489.83 98.5882 490.256 97.4509C490.683 96.3135 490.795 95.0621 490.577 93.8547C490.36 92.6474 489.823 91.5383 489.034 90.6679C488.246 89.7974 487.241 89.2046 486.147 88.9644C485.054 88.7243 483.92 88.8475 482.89 89.3186C481.86 89.7897 480.979 90.5875 480.36 91.611C479.74 92.6346 479.409 93.838 479.409 95.069C479.409 95.8864 479.555 96.6957 479.839 97.4509C480.122 98.206 480.537 98.8922 481.061 99.4701C481.584 100.048 482.206 100.507 482.89 100.819C483.574 101.132 484.307 101.293 485.047 101.293Z" fill="#407BFF"/>
<path d="M365.398 47.9311C374.783 47.9311 382.391 39.5325 382.391 29.1724C382.391 18.8123 374.783 10.4138 365.398 10.4138C356.014 10.4138 348.406 18.8123 348.406 29.1724C348.406 39.5325 356.014 47.9311 365.398 47.9311Z" fill="white" stroke="white" stroke-width="0.5" stroke-miterlimit="10"/>
<path d="M371.021 27.8966H359.947C358.919 27.9147 357.938 28.3786 357.216 29.1882C356.494 29.9978 356.09 31.0883 356.09 32.2242V42.569C358.798 44.8978 362.138 46.1495 365.571 46.1213C369.004 46.0932 372.327 44.7868 375.003 42.4138V32.2242C375.003 31.65 374.9 31.0816 374.699 30.552C374.498 30.0224 374.204 29.5422 373.833 29.1395C373.462 28.7367 373.023 28.4194 372.54 28.206C372.057 27.9926 371.541 27.8874 371.021 27.8966Z" fill="#407BFF"/>
<path d="M365.289 26C368.403 26 370.927 23.2134 370.927 19.7759C370.927 16.3384 368.403 13.5517 365.289 13.5517C362.175 13.5517 359.651 16.3384 359.651 19.7759C359.651 23.2134 362.175 26 365.289 26Z" fill="#407BFF"/>
<path d="M60.7196 161.773C69.9822 160.108 76.2681 150.469 74.7596 140.243C73.2511 130.018 64.5194 123.079 55.2568 124.744C45.9942 126.409 39.7083 136.048 41.2168 146.274C42.7253 156.499 51.457 163.439 60.7196 161.773Z" fill="white" stroke="white" stroke-width="0.5" stroke-miterlimit="10"/>
<path d="M63.6276 141.983H52.5388C52.0248 141.983 51.5158 142.095 51.041 142.313C50.5663 142.53 50.1352 142.849 49.7724 143.251C49.4096 143.653 49.1224 144.131 48.9271 144.656C48.7318 145.181 48.6323 145.743 48.6343 146.31V156.569C51.3398 158.896 54.6778 160.147 58.1077 160.119C61.5375 160.091 64.8583 158.785 67.5321 156.414V146.31C67.5341 145.743 67.4347 145.181 67.2394 144.656C67.0441 144.131 66.7568 143.653 66.394 143.251C66.0313 142.849 65.6001 142.53 65.1254 142.313C64.6507 142.095 64.1417 141.983 63.6276 141.983Z" fill="#407BFF"/>
<path d="M57.8958 140.086C59.0109 140.086 60.101 139.721 61.0282 139.037C61.9553 138.353 62.678 137.381 63.1047 136.244C63.5315 135.107 63.6431 133.855 63.4256 132.648C63.208 131.44 62.6711 130.331 61.8826 129.461C61.0941 128.59 60.0894 127.998 58.9958 127.758C57.9021 127.517 56.7684 127.641 55.7382 128.112C54.708 128.583 53.8274 129.381 53.2079 130.404C52.5884 131.428 52.2577 132.631 52.2577 133.862C52.2577 135.513 52.8517 137.096 53.9091 138.263C54.9664 139.43 56.4005 140.086 57.8958 140.086Z" fill="#407BFF"/>
<path d="M71.6675 279.866C80.9301 278.201 87.216 268.562 85.7075 258.336C84.199 248.111 75.4673 241.172 66.2047 242.837C56.9422 244.502 50.6562 254.142 52.1647 264.367C53.6733 274.592 62.4049 281.532 71.6675 279.866Z" fill="white" stroke="white" stroke-width="0.5" stroke-miterlimit="10"/>
<path d="M74.5602 260.086H63.4714C62.9574 260.086 62.4484 260.198 61.9736 260.416C61.4989 260.634 61.0678 260.953 60.705 261.355C60.3422 261.757 60.0549 262.234 59.8596 262.759C59.6643 263.284 59.5649 263.846 59.5669 264.414V274.672C62.2724 277 65.6104 278.251 69.0402 278.223C72.4701 278.195 75.7909 276.889 78.4647 274.517V264.414C78.4667 263.846 78.3673 263.284 78.172 262.759C77.9767 262.234 77.6894 261.757 77.3266 261.355C76.9638 260.953 76.5327 260.634 76.058 260.416C75.5832 260.198 75.0742 260.086 74.5602 260.086Z" fill="#407BFF"/>
<path d="M68.8284 258.19C69.9435 258.19 71.0336 257.825 71.9607 257.141C72.8879 256.457 73.6106 255.485 74.0373 254.347C74.464 253.21 74.5757 251.959 74.3581 250.751C74.1406 249.544 73.6036 248.435 72.8151 247.564C72.0266 246.694 71.022 246.101 69.9283 245.861C68.8346 245.621 67.701 245.744 66.6708 246.215C65.6406 246.686 64.76 247.484 64.1405 248.508C63.521 249.531 63.1903 250.735 63.1903 251.966C63.1903 253.616 63.7843 255.199 64.8417 256.367C65.899 257.534 67.3331 258.19 68.8284 258.19Z" fill="#407BFF"/>
<path d="M154.031 173.388C157.469 163.748 153.177 152.857 144.445 149.061C135.712 145.266 125.846 150.004 122.408 159.644C118.971 169.284 123.262 180.175 131.995 183.971C140.727 187.766 150.593 183.028 154.031 173.388Z" fill="white" stroke="white" stroke-width="0.5" stroke-miterlimit="10"/>
<path d="M143.857 165.259H132.753C131.717 165.259 130.724 165.713 129.992 166.521C129.26 167.329 128.848 168.426 128.848 169.569V179.914C131.554 182.241 134.892 183.492 138.322 183.464C141.751 183.436 145.072 182.13 147.746 179.759V169.655C147.756 169.083 147.664 168.515 147.473 167.983C147.282 167.451 146.998 166.967 146.636 166.558C146.274 166.148 145.842 165.823 145.365 165.6C144.888 165.377 144.375 165.261 143.857 165.259Z" fill="#407BFF"/>
<path d="M138.125 163.362C139.241 163.362 140.331 162.997 141.258 162.313C142.185 161.629 142.908 160.657 143.334 159.52C143.761 158.383 143.873 157.131 143.655 155.924C143.438 154.716 142.901 153.607 142.112 152.737C141.324 151.866 140.319 151.274 139.225 151.033C138.132 150.793 136.998 150.917 135.968 151.388C134.938 151.859 134.057 152.656 133.438 153.68C132.818 154.704 132.487 155.907 132.487 157.138C132.487 157.955 132.633 158.765 132.916 159.52C133.2 160.275 133.615 160.961 134.139 161.539C134.662 162.117 135.284 162.576 135.968 162.888C136.652 163.201 137.385 163.362 138.125 163.362Z" fill="#407BFF"/>
<path d="M250.309 369.328C259.694 369.328 267.302 360.929 267.302 350.569C267.302 340.209 259.694 331.81 250.309 331.81C240.925 331.81 233.317 340.209 233.317 350.569C233.317 360.929 240.925 369.328 250.309 369.328Z" fill="white" stroke="white" stroke-width="0.5" stroke-miterlimit="10"/>
<path d="M255.947 349.31H244.874C243.835 349.31 242.837 349.766 242.102 350.578C241.367 351.389 240.954 352.49 240.954 353.638V363.897C243.662 366.225 247.003 367.477 250.435 367.449C253.868 367.421 257.191 366.114 259.867 363.741V353.638C259.867 352.49 259.454 351.389 258.719 350.578C257.984 349.766 256.987 349.31 255.947 349.31Z" fill="#407BFF"/>
<path d="M250.216 347.414C253.329 347.414 255.854 344.627 255.854 341.19C255.854 337.752 253.329 334.966 250.216 334.966C247.102 334.966 244.578 337.752 244.578 341.19C244.578 344.627 247.102 347.414 250.216 347.414Z" fill="#407BFF"/>
<path d="M372.489 405.397C381.873 405.397 389.481 396.998 389.481 386.638C389.481 376.278 381.873 367.879 372.489 367.879C363.104 367.879 355.496 376.278 355.496 386.638C355.496 396.998 363.104 405.397 372.489 405.397Z" fill="white" stroke="white" stroke-width="0.5" stroke-miterlimit="10"/>
<path d="M378.111 385.379H367.022C365.985 385.379 364.991 385.833 364.256 386.641C363.521 387.449 363.106 388.545 363.102 389.69V400.034C365.81 402.363 369.151 403.615 372.583 403.587C376.016 403.559 379.339 402.252 382.016 399.879V389.655C382.007 388.518 381.592 387.43 380.861 386.63C380.13 385.829 379.141 385.379 378.111 385.379Z" fill="#407BFF"/>
<path d="M372.379 383.483C375.493 383.483 378.018 380.696 378.018 377.259C378.018 373.821 375.493 371.034 372.379 371.034C369.266 371.034 366.741 373.821 366.741 377.259C366.741 380.696 369.266 383.483 372.379 383.483Z" fill="#407BFF"/>
<path d="M474.345 285.054C477.583 275.33 473.066 264.55 464.258 260.976C455.449 257.402 445.684 262.388 442.447 272.112C439.209 281.836 443.726 292.616 452.534 296.19C461.343 299.764 471.108 294.778 474.345 285.054Z" fill="white" stroke="white" stroke-width="0.5" stroke-miterlimit="10"/>
<path d="M464.026 277.328H452.921C451.886 277.328 450.893 277.782 450.16 278.59C449.428 279.398 449.017 280.495 449.017 281.638V291.983C451.722 294.31 455.06 295.561 458.49 295.533C461.92 295.505 465.241 294.199 467.915 291.828V281.724C467.925 281.152 467.832 280.584 467.641 280.052C467.451 279.52 467.166 279.036 466.804 278.627C466.442 278.217 466.01 277.892 465.533 277.669C465.056 277.446 464.544 277.33 464.026 277.328Z" fill="#407BFF"/>
<path d="M458.294 275.431C459.409 275.431 460.499 275.066 461.426 274.382C462.353 273.698 463.076 272.726 463.503 271.589C463.93 270.451 464.041 269.2 463.824 267.993C463.606 266.785 463.069 265.676 462.281 264.806C461.492 263.935 460.488 263.343 459.394 263.102C458.3 262.862 457.167 262.985 456.136 263.457C455.106 263.928 454.226 264.725 453.606 265.749C452.986 266.773 452.656 267.976 452.656 269.207C452.656 270.858 453.25 272.441 454.307 273.608C455.365 274.775 456.799 275.431 458.294 275.431Z" fill="#407BFF"/>
<path d="M424.59 109.724C448.58 131.19 462.808 158 462.808 186.931C462.808 257.621 378.205 314.965 273.83 314.965C169.455 314.965 84.8524 257.638 84.8524 186.931C84.8524 156 101.048 127.638 128.005 105.5" stroke="white" stroke-width="0.5" stroke-miterlimit="10"/>
<path d="M165.551 56.4655C182.559 25.6897 206.47 5.17243 234.801 0.603462C301.364 -9.98274 367.132 72.1035 381.719 183.948C396.306 295.793 354.184 395.035 287.636 405.621C257.337 410.431 227.195 396.052 201.972 368.397" stroke="white" stroke-width="0.5" stroke-miterlimit="10"/>
<path d="M421.13 327.816C443.248 287.845 388.577 206.48 299.018 146.084C209.46 85.687 118.927 69.1291 96.8085 109.1C74.6898 149.072 129.361 230.436 218.92 290.833C308.478 351.229 399.011 367.787 421.13 327.816Z" stroke="white" stroke-width="0.5" stroke-miterlimit="10"/>
<path d="M312.931 281.439C404.838 219.459 461.413 136.811 439.294 96.8398C417.175 56.8685 324.74 74.7102 232.833 136.69C140.926 198.67 84.3513 281.318 106.47 321.29C128.589 361.261 221.025 343.419 312.931 281.439Z" stroke="white" stroke-width="0.5" stroke-miterlimit="10"/>
<path d="M353.076 81.0345C353.076 80.3525 352.892 79.6858 352.549 79.1187C352.206 78.5517 351.718 78.1097 351.147 77.8487C350.577 77.5877 349.948 77.5194 349.343 77.6525C348.737 77.7855 348.18 78.114 347.743 78.5962C347.306 79.0785 347.009 79.6929 346.888 80.3618C346.768 81.0307 346.83 81.724 347.066 82.3541C347.303 82.9842 347.703 83.5227 348.217 83.9016C348.73 84.2805 349.334 84.4828 349.952 84.4828C350.78 84.4828 351.575 84.1195 352.161 83.4728C352.746 82.8261 353.076 81.949 353.076 81.0345Z" fill="white" stroke="white" stroke-width="0.5" stroke-miterlimit="10"/>
<path d="M387.435 222.19C387.435 221.508 387.252 220.841 386.909 220.274C386.565 219.707 386.078 219.265 385.507 219.004C384.936 218.743 384.308 218.675 383.702 218.808C383.096 218.941 382.54 219.269 382.103 219.751C381.666 220.234 381.368 220.848 381.248 221.517C381.127 222.186 381.189 222.879 381.426 223.509C381.662 224.139 382.062 224.678 382.576 225.057C383.09 225.436 383.694 225.638 384.312 225.638C385.14 225.638 385.934 225.275 386.52 224.628C387.106 223.981 387.435 223.104 387.435 222.19Z" fill="white" stroke="white" stroke-width="0.5" stroke-miterlimit="10"/>
<path d="M380.563 293.897C380.563 293.215 380.38 292.548 380.037 291.981C379.694 291.414 379.206 290.972 378.635 290.711C378.064 290.45 377.436 290.381 376.83 290.514C376.224 290.648 375.668 290.976 375.231 291.458C374.794 291.94 374.497 292.555 374.376 293.224C374.256 293.893 374.317 294.586 374.554 295.216C374.79 295.846 375.191 296.385 375.704 296.764C376.218 297.143 376.822 297.345 377.44 297.345C378.268 297.345 379.063 296.981 379.648 296.335C380.234 295.688 380.563 294.811 380.563 293.897Z" fill="white" stroke="white" stroke-width="0.5" stroke-miterlimit="10"/>
<path d="M360.635 348.517C360.635 347.835 360.451 347.169 360.108 346.602C359.765 346.034 359.277 345.592 358.706 345.331C358.136 345.07 357.508 345.002 356.902 345.135C356.296 345.268 355.739 345.597 355.302 346.079C354.865 346.561 354.568 347.176 354.447 347.845C354.327 348.513 354.389 349.207 354.625 349.837C354.862 350.467 355.262 351.006 355.776 351.384C356.289 351.763 356.893 351.966 357.511 351.966C358.339 351.966 359.134 351.602 359.72 350.956C360.306 350.309 360.635 349.432 360.635 348.517Z" fill="white" stroke="white" stroke-width="0.5" stroke-miterlimit="10"/>
<path d="M420.124 270.69C420.124 270.008 419.94 269.341 419.597 268.774C419.254 268.207 418.766 267.765 418.195 267.504C417.625 267.243 416.997 267.175 416.391 267.308C415.785 267.441 415.228 267.769 414.791 268.251C414.354 268.734 414.057 269.348 413.936 270.017C413.816 270.686 413.878 271.379 414.114 272.009C414.351 272.639 414.751 273.178 415.265 273.557C415.778 273.936 416.382 274.138 417 274.138C417.828 274.138 418.623 273.775 419.209 273.128C419.795 272.481 420.124 271.604 420.124 270.69Z" fill="white" stroke="white" stroke-width="0.5" stroke-miterlimit="10"/>
<path d="M259.602 314C259.602 313.318 259.419 312.651 259.076 312.084C258.732 311.517 258.245 311.075 257.674 310.814C257.103 310.553 256.475 310.485 255.869 310.618C255.263 310.751 254.707 311.079 254.27 311.562C253.833 312.044 253.535 312.658 253.415 313.327C253.294 313.996 253.356 314.69 253.593 315.32C253.829 315.95 254.229 316.488 254.743 316.867C255.257 317.246 255.861 317.448 256.478 317.448C257.307 317.448 258.101 317.085 258.687 316.438C259.273 315.792 259.602 314.915 259.602 314Z" fill="white" stroke="white" stroke-width="0.5" stroke-miterlimit="10"/>
<path d="M117.338 256.724C117.338 256.042 117.155 255.375 116.811 254.808C116.468 254.241 115.98 253.799 115.41 253.538C114.839 253.277 114.211 253.209 113.605 253.342C112.999 253.475 112.442 253.804 112.006 254.286C111.569 254.768 111.271 255.383 111.151 256.051C111.03 256.72 111.092 257.414 111.328 258.044C111.565 258.674 111.965 259.212 112.479 259.591C112.993 259.97 113.596 260.172 114.214 260.172C115.043 260.172 115.837 259.809 116.423 259.162C117.009 258.516 117.338 257.639 117.338 256.724Z" fill="white" stroke="white" stroke-width="0.5" stroke-miterlimit="10"/>
<path d="M141.39 221.052C141.39 220.37 141.206 219.703 140.863 219.136C140.52 218.569 140.032 218.127 139.461 217.866C138.891 217.605 138.262 217.537 137.657 217.67C137.051 217.803 136.494 218.131 136.057 218.613C135.62 219.096 135.323 219.71 135.202 220.379C135.082 221.048 135.144 221.741 135.38 222.371C135.617 223.001 136.017 223.54 136.531 223.919C137.044 224.298 137.648 224.5 138.266 224.5C139.094 224.5 139.889 224.137 140.475 223.49C141.06 222.843 141.39 221.966 141.39 221.052Z" fill="white" stroke="white" stroke-width="0.5" stroke-miterlimit="10"/>
<path d="M259.946 121.293C259.946 120.611 259.762 119.944 259.419 119.377C259.076 118.81 258.588 118.368 258.017 118.107C257.447 117.846 256.819 117.778 256.213 117.911C255.607 118.044 255.05 118.373 254.613 118.855C254.176 119.337 253.879 119.951 253.758 120.62C253.638 121.289 253.7 121.983 253.936 122.613C254.173 123.243 254.573 123.781 255.087 124.16C255.6 124.539 256.204 124.741 256.822 124.741C257.65 124.741 258.445 124.378 259.031 123.731C259.617 123.085 259.946 122.208 259.946 121.293Z" fill="white" stroke="white" stroke-width="0.5" stroke-miterlimit="10"/>
<path d="M445.503 130.017C445.503 129.335 445.32 128.669 444.976 128.101C444.633 127.534 444.145 127.092 443.575 126.831C443.004 126.57 442.376 126.502 441.77 126.635C441.164 126.768 440.607 127.097 440.17 127.579C439.734 128.061 439.436 128.676 439.316 129.345C439.195 130.013 439.257 130.707 439.493 131.337C439.73 131.967 440.13 132.505 440.644 132.884C441.157 133.263 441.761 133.466 442.379 133.466C443.208 133.466 444.002 133.102 444.588 132.456C445.174 131.809 445.503 130.932 445.503 130.017Z" fill="white" stroke="white" stroke-width="0.5" stroke-miterlimit="10"/>
<path d="M97.7529 146.707C97.7529 146.025 97.5697 145.358 97.2265 144.791C96.8832 144.224 96.3954 143.782 95.8246 143.521C95.2538 143.26 94.6258 143.192 94.0199 143.325C93.414 143.458 92.8574 143.786 92.4205 144.269C91.9837 144.751 91.6862 145.365 91.5657 146.034C91.4452 146.703 91.507 147.396 91.7435 148.026C91.9799 148.657 92.3802 149.195 92.8939 149.574C93.4076 149.953 94.0115 150.155 94.6293 150.155C95.4577 150.155 96.2522 149.792 96.838 149.145C97.4238 148.499 97.7529 147.621 97.7529 146.707Z" fill="white" stroke="white" stroke-width="0.5" stroke-miterlimit="10"/>
<path d="M445.471 128.655L470.023 114.069" stroke="white" stroke-width="0.5" stroke-miterlimit="10"/>
<path d="M91.5682 146.707L74.9819 143.259" stroke="white" stroke-width="0.5" stroke-miterlimit="10"/>
<path d="M138.297 217.638V185.276" stroke="white" stroke-width="0.5" stroke-miterlimit="10"/>
<path d="M111.153 256.724L85.9145 261.362" stroke="white" stroke-width="0.5" stroke-miterlimit="10"/>
<path d="M255.807 317.362L253.495 332.362" stroke="white" stroke-width="0.5" stroke-miterlimit="10"/>
<path d="M358.714 351.81L365.945 369.19" stroke="white" stroke-width="0.5" stroke-miterlimit="10"/>
<path d="M420.077 270.759L441.067 275.724" stroke="white" stroke-width="0.5" stroke-miterlimit="10"/>
<path d="M374.972 291.397L354.591 269.741" stroke="white" stroke-width="0.5" stroke-miterlimit="10"/>
<path d="M351.233 77.9655L360.525 47.4655" stroke="white" stroke-width="0.5" stroke-miterlimit="10"/>
<path d="M153.65 61.9828L157.585 65.2414" stroke="white" stroke-width="0.5" stroke-miterlimit="10"/>
<path d="M183.667 367.776L188.087 361.259" stroke="white" stroke-width="0.5" stroke-miterlimit="10"/>
<path d="M357.94 263.639C361.248 253.944 356.81 243.124 348.028 239.472C339.246 235.82 329.445 240.719 326.137 250.414C322.829 260.109 327.266 270.929 336.049 274.581C344.831 278.233 354.632 273.334 357.94 263.639Z" fill="white" stroke="white" stroke-width="0.5" stroke-miterlimit="10"/>
<path d="M347.672 255.776H336.583C335.547 255.776 334.554 256.23 333.822 257.038C333.09 257.847 332.679 258.943 332.679 260.086V270.431C335.384 272.759 338.722 274.009 342.152 273.981C345.582 273.953 348.902 272.647 351.576 270.276V260.172C351.587 259.599 351.493 259.029 351.302 258.496C351.11 257.963 350.824 257.478 350.461 257.069C350.097 256.659 349.663 256.334 349.184 256.112C348.705 255.89 348.191 255.776 347.672 255.776Z" fill="#407BFF"/>
<path d="M341.94 253.879C343.055 253.879 344.145 253.514 345.072 252.83C346 252.146 346.722 251.174 347.149 250.037C347.576 248.9 347.687 247.648 347.47 246.441C347.252 245.234 346.715 244.125 345.927 243.254C345.138 242.384 344.134 241.791 343.04 241.551C341.946 241.31 340.813 241.434 339.782 241.905C338.752 242.376 337.872 243.174 337.252 244.197C336.632 245.221 336.302 246.424 336.302 247.655C336.302 249.306 336.896 250.889 337.953 252.056C339.011 253.224 340.445 253.879 341.94 253.879Z" fill="#407BFF"/>
<path d="M396.232 174.827C399.517 165.122 395.054 154.315 386.263 150.689C377.472 147.062 367.683 151.99 364.397 161.694C361.112 171.399 365.576 182.206 374.367 185.832C383.158 189.459 392.947 184.532 396.232 174.827Z" fill="white" stroke="white" stroke-width="0.5" stroke-miterlimit="10"/>
<path d="M385.936 166.983H374.831C373.796 166.983 372.803 167.437 372.071 168.245C371.338 169.054 370.927 170.15 370.927 171.293V181.638C373.632 183.965 376.97 185.216 380.4 185.188C383.83 185.16 387.151 183.854 389.825 181.483V171.379C389.835 170.807 389.742 170.239 389.552 169.707C389.361 169.176 389.076 168.691 388.715 168.282C388.353 167.872 387.92 167.547 387.443 167.324C386.966 167.101 386.454 166.985 385.936 166.983Z" fill="#407BFF"/>
<path d="M380.204 165.086C381.319 165.086 382.409 164.721 383.336 164.037C384.264 163.353 384.986 162.381 385.413 161.244C385.84 160.107 385.951 158.855 385.734 157.648C385.516 156.44 384.979 155.331 384.191 154.461C383.402 153.59 382.398 152.998 381.304 152.758C380.21 152.517 379.077 152.641 378.046 153.112C377.016 153.583 376.136 154.381 375.516 155.404C374.897 156.428 374.566 157.631 374.566 158.862C374.566 160.513 375.16 162.096 376.217 163.263C377.275 164.43 378.709 165.086 380.204 165.086Z" fill="#407BFF"/>
</g>
<defs>
<clipPath id="clip0_2_20">
<rect width="556" height="600" fill="white"/>
</clipPath>
</defs>
</svg>
