<svg width="398" height="402" viewBox="0 0 398 402" fill="none" xmlns="http://www.w3.org/2000/svg">
<g clip-path="url(#clip0_90_507)">
<path d="M370.53 151C364.35 114 337.45 95.17 304.91 83.78C282.35 75.88 261.29 67.51 240.59 56.09C218.06 43.66 198.75 26.34 175.83 14.38C156.42 4.23999 134.25 -2.78 111.38 0.839996C93.16 3.73 75.67 13.28 60.8 25.7C26.06 54.7 4.94997 100.5 6.44997 143.6C8.00997 188.6 32.52 227.44 64.02 255.77C83.46 273.26 106.17 287.45 131.42 295.71C153.6 302.96 244.58 308.3 293.59 283.03C339.45 259.35 378.76 200.35 370.53 151Z" fill="#407BFF"/>
<path opacity="0.6" d="M370.53 151C364.35 114 337.45 95.17 304.91 83.78C282.35 75.88 261.29 67.51 240.59 56.09C218.06 43.66 198.75 26.34 175.83 14.38C156.42 4.23999 134.25 -2.78 111.38 0.839996C93.16 3.73 75.67 13.28 60.8 25.7C26.06 54.7 4.94997 100.5 6.44997 143.6C8.00997 188.6 32.52 227.44 64.02 255.77C83.46 273.26 106.17 287.45 131.42 295.71C153.6 302.96 244.58 308.3 293.59 283.03C339.45 259.35 378.76 200.35 370.53 151Z" fill="white"/>
<path d="M66.2 351.55L268.77 274.08" stroke="#263238" stroke-linecap="round" stroke-linejoin="round"/>
<path d="M73.7599 121.3C70.4507 122.854 66.8352 123.646 63.1794 123.618C59.5236 123.591 55.9205 122.744 52.6351 121.141C49.3497 119.537 46.4655 117.217 44.1947 114.352C41.9239 111.487 40.3242 108.149 39.5133 104.584C38.7024 101.02 38.701 97.3183 39.509 93.7528C40.317 90.1874 41.9141 86.8484 44.1826 83.9814C46.4511 81.1145 49.3334 78.7925 52.6176 77.1863C55.9017 75.5801 59.5042 74.7305 63.1599 74.7C58.6707 77.4621 55.1588 81.5603 53.117 86.4196C51.0751 91.279 50.6059 96.6557 51.775 101.795C52.9441 106.935 55.6929 111.58 59.6357 115.078C63.5786 118.576 68.5176 120.752 73.7599 121.3Z" fill="#263238"/>
<path d="M82.1801 75.98L81.2001 73.47L78.5801 72.85L80.6701 71.15L80.4401 68.46L82.7101 69.92L85.2001 68.88L84.5101 71.48L86.2701 73.52L83.5801 73.68L82.1801 75.98Z" fill="#263238"/>
<path d="M94.8099 101.28L93.3999 101.59L92.8499 102.92L92.1199 101.67L90.6799 101.57L91.6399 100.49L91.2999 99.09L92.6199 99.67L93.8499 98.91L93.7099 100.35L94.8099 101.28Z" fill="#263238"/>
<path d="M48.2701 140.91L46.8601 141.22L46.3101 142.55L45.5801 141.31L44.1401 141.2L45.1001 140.12L44.7601 138.72L46.0801 139.3L47.3101 138.54L47.1701 139.98L48.2701 140.91Z" fill="#263238"/>
<path d="M13.91 142.45L11.84 139.57L8.29004 139.64L10.39 136.78L9.22004 133.43L12.6 134.54L15.42 132.39L15.41 135.94L18.32 137.97L14.94 139.05L13.91 142.45Z" fill="#263238"/>
<path d="M293.06 342.99L295.1 372.68L340.75 401.45L389.87 369.35L398.1 341.97L336.06 322.15L293.06 342.99Z" fill="#407BFF"/>
<path d="M291.57 339.99L328.64 319.18L398.26 341.28L342.85 375.42L291.57 339.99Z" fill="white" stroke="#263238" stroke-linecap="round" stroke-linejoin="round"/>
<path d="M292.76 339.46L295.1 372.68L340.83 401.6L342.85 375.42" stroke="#263238" stroke-linecap="round" stroke-linejoin="round"/>
<path d="M340.83 401.6L389.68 369.16L398.26 341.28" stroke="#263238" stroke-linecap="round" stroke-linejoin="round"/>
<path d="M283.38 339.07L343.17 370.34L394.89 336.21C394.89 336.21 334.31 317.46 333.14 317.07C331.97 316.68 283.38 339.07 283.38 339.07Z" fill="white" stroke="#263238" stroke-miterlimit="10"/>
<path d="M340.53 363.11L380 336.92" stroke="#263238" stroke-linecap="round" stroke-linejoin="round"/>
<path d="M336.42 360.37L375.9 334.19" stroke="#263238" stroke-linecap="round" stroke-linejoin="round"/>
<path d="M330.37 358.61L369.84 332.43" stroke="#263238" stroke-linecap="round" stroke-linejoin="round"/>
<path d="M325.68 356.07L365.15 329.89" stroke="#263238" stroke-linecap="round" stroke-linejoin="round"/>
<path d="M323.48 375.14L316.93 370.91" stroke="#263238" stroke-linecap="round" stroke-linejoin="round"/>
<path d="M371.28 368.91L383.17 361.91" stroke="#263238" stroke-linecap="round" stroke-linejoin="round"/>
<path d="M364.17 380.03L371.72 375.8" stroke="#263238" stroke-linecap="round" stroke-linejoin="round"/>
<path d="M78.89 316.58H78.98L70.38 321.58V300.13L73.92 297.65L85.18 290C105.64 290 109.18 271.47 109.18 271.47C84.02 270.03 83.77 286.47 83.93 289.52L70.38 299V282.35H70.43C70.43 282.35 91.94 275.82 70.08 243.55C70.08 243.55 46.95 274.05 69.42 282.01V316.59L60.24 309.59C60.4 306.17 59.87 288.79 32.51 289.9C32.51 289.9 43.05 316.3 59.67 310.36L62.27 312.36L69.27 317.66C69.3231 317.687 69.3807 317.704 69.44 317.71V329.8L54.75 329.63L60.93 366.84L78.74 366.31L84.54 330L70.38 329.83V322.76L80.27 316.99C96.89 321.32 106.75 304.99 106.75 304.99C79.25 300 78.89 316.58 78.89 316.58Z" fill="#263238"/>
<path d="M163.88 364.32C163.88 367.66 155.77 370.37 145.75 370.37C135.73 370.37 127.62 367.66 127.62 364.32C127.62 360.98 135.74 358.32 145.75 358.32C155.76 358.32 163.88 361 163.88 364.32Z" stroke="#263238" stroke-linecap="round" stroke-linejoin="round"/>
<path d="M127.62 364.32C127.62 364.32 128.29 376.63 131.2 384.24C134.11 391.85 146.73 394.46 153.59 391.41C158.68 389.15 161.25 382.25 162.59 375.99" stroke="#263238" stroke-linecap="round" stroke-linejoin="round"/>
<path d="M156.88 385.36C157.81 387.73 161.16 387.76 163.25 387.52C165.132 387.417 166.907 386.609 168.219 385.256C169.531 383.903 170.285 382.104 170.33 380.22C170.517 377.332 169.743 374.463 168.13 372.06C167.457 371.183 166.593 370.472 165.604 369.979C164.614 369.487 163.525 369.228 162.42 369.22C161.877 369.217 161.34 369.334 160.847 369.562C160.354 369.79 159.918 370.125 159.569 370.541C159.221 370.958 158.968 371.446 158.83 371.971C158.692 372.497 158.671 373.046 158.77 373.58C158.833 374.011 159.021 374.414 159.31 374.74C160.23 375.74 161.55 375.16 162.65 375.59C163.154 375.834 163.597 376.189 163.943 376.629C164.29 377.069 164.531 377.583 164.65 378.13C165.08 379.69 165.3 381.13 164.29 382.47C163.929 382.897 163.461 383.22 162.934 383.407C162.407 383.593 161.839 383.635 161.29 383.53C160.29 383.4 159.45 382.53 158.41 382.53C158.175 382.529 157.941 382.577 157.726 382.671C157.51 382.765 157.316 382.903 157.156 383.076C156.996 383.249 156.874 383.454 156.797 383.676C156.72 383.899 156.691 384.135 156.71 384.37C156.707 384.708 156.764 385.043 156.88 385.36Z" fill="white" stroke="#263238" stroke-linecap="round" stroke-linejoin="round"/>
<path d="M145.84 370.09C154.964 370.09 162.36 368.205 162.36 365.88C162.36 363.555 154.964 361.67 145.84 361.67C136.716 361.67 129.32 363.555 129.32 365.88C129.32 368.205 136.716 370.09 145.84 370.09Z" fill="#263238"/>
<path d="M141.17 355.1C140.761 353.997 140.671 352.802 140.91 351.65C141.38 349.65 143.03 348.16 144.76 347.07C146.572 346.112 148.298 345.002 149.92 343.75C151.43 342.38 152.52 340.26 151.92 338.3C151.431 337.182 150.852 336.105 150.19 335.08C149.733 334.13 149.553 333.069 149.674 332.022C149.794 330.974 150.209 329.982 150.87 329.16C151.568 328.371 152.509 327.836 153.544 327.638C154.579 327.441 155.651 327.593 156.59 328.07C157.495 328.606 158.163 329.466 158.458 330.476C158.754 331.486 158.654 332.571 158.18 333.51C157.54 334.63 156.37 335.34 155.63 336.4C155.134 337.154 154.869 338.037 154.869 338.94C154.869 339.843 155.134 340.726 155.63 341.48C156.39 342.59 157.63 343.39 158.05 344.68C158.193 345.338 158.14 346.024 157.898 346.653C157.657 347.282 157.237 347.826 156.69 348.22C155.584 348.987 154.285 349.427 152.94 349.49C151.592 349.527 150.251 349.704 148.94 350.02C147.983 350.316 147.112 350.842 146.404 351.55C145.695 352.259 145.17 353.13 144.875 354.088C144.579 355.046 144.522 356.061 144.707 357.046C144.893 358.031 145.316 358.956 145.94 359.74C146.69 360.69 146 360.15 144.82 359.48C143.126 358.495 141.834 356.944 141.17 355.1Z" fill="#263238"/>
<path opacity="0.7" d="M141.18 355.09C140.766 353.988 140.675 352.791 140.92 351.64C141.39 349.64 143.04 348.15 144.77 347.06C146.575 346.096 148.297 344.986 149.92 343.74C151.44 342.37 152.52 340.25 151.92 338.29C151.439 337.168 150.86 336.091 150.19 335.07C149.731 334.119 149.553 333.058 149.675 332.01C149.797 330.961 150.215 329.97 150.88 329.15C151.575 328.356 152.516 327.818 153.552 327.62C154.589 327.423 155.662 327.578 156.6 328.06C157.505 328.596 158.173 329.456 158.468 330.466C158.763 331.476 158.664 332.561 158.19 333.5C157.54 334.62 156.37 335.33 155.64 336.39C155.139 337.142 154.871 338.026 154.871 338.93C154.871 339.834 155.139 340.718 155.64 341.47C156.4 342.58 157.64 343.38 158.05 344.67C158.194 345.326 158.143 346.01 157.903 346.637C157.663 347.264 157.245 347.808 156.7 348.2C155.592 348.973 154.289 349.416 152.94 349.48C151.593 349.519 150.253 349.693 148.94 350C147.984 350.3 147.115 350.827 146.408 351.537C145.701 352.247 145.177 353.119 144.882 354.076C144.587 355.034 144.529 356.049 144.713 357.034C144.898 358.019 145.319 358.944 145.94 359.73C146.7 360.68 146 360.14 144.82 359.46C143.13 358.477 141.841 356.93 141.18 355.09Z" fill="white"/>
<path d="M249.77 260.86V78.5" stroke="#263238" stroke-width="1.04959" stroke-linecap="round" stroke-linejoin="round"/>
<path d="M109.17 240.86V59.64" stroke="#263238" stroke-width="1.04959" stroke-linecap="round" stroke-linejoin="round"/>
<path d="M3.71021 161.09H315.11" stroke="#263238" stroke-width="1.02057" stroke-linecap="round" stroke-linejoin="round"/>
<path d="M146.93 124.08L142.7 126.94" stroke="#263238" stroke-width="0.524794" stroke-linecap="round" stroke-linejoin="round"/>
<path d="M65.5101 177.96L-0.149902 222.54" stroke="#263238" stroke-width="1.04959" stroke-linecap="round" stroke-linejoin="round"/>
<path d="M58.4 171.73L42.51 182.51" stroke="#263238" stroke-width="1.04959" stroke-linecap="round" stroke-linejoin="round"/>
<path d="M350.469 89.1153C353.574 70.1762 340.738 52.3062 321.799 49.2014C302.86 46.0966 284.99 58.9328 281.885 77.8719C278.78 96.811 291.616 114.681 310.555 117.786C329.495 120.891 347.365 108.054 350.469 89.1153Z" fill="#263238"/>
<path d="M316.16 111.04C331.376 111.04 343.71 98.7055 343.71 83.49C343.71 68.2746 331.376 55.94 316.16 55.94C300.945 55.94 288.61 68.2746 288.61 83.49C288.61 98.7055 300.945 111.04 316.16 111.04Z" fill="white"/>
<path d="M318.48 83.49C318.482 83.9517 318.347 84.4035 318.092 84.7882C317.836 85.1729 317.472 85.4731 317.046 85.6507C316.62 85.8283 316.151 85.8753 315.698 85.7857C315.245 85.6961 314.829 85.474 314.503 85.1475C314.176 84.8211 313.954 84.405 313.864 83.9521C313.775 83.4992 313.822 83.0299 313.999 82.6037C314.177 82.1776 314.477 81.8138 314.862 81.5585C315.247 81.3032 315.698 81.168 316.16 81.17C316.775 81.17 317.365 81.4144 317.801 81.8495C318.236 82.2846 318.48 82.8747 318.48 83.49Z" fill="#263238"/>
<path d="M316.5 84.17V61.52" stroke="#263238" stroke-width="1.13651" stroke-linecap="round" stroke-linejoin="round"/>
<path d="M316.15 83.14L310.89 65.56" stroke="#263238" stroke-width="1.13651" stroke-linecap="round" stroke-linejoin="round"/>
<path d="M129.28 327.69L97.87 204C97.2051 201.396 97.4744 198.641 98.631 196.214C99.7875 193.788 101.758 191.844 104.2 190.72C132.06 177.99 179.2 164.34 216.1 164.9C218.963 164.946 221.707 166.057 223.794 168.017C225.882 169.977 227.164 172.645 227.39 175.5L235.49 277.7C235.685 280.157 235.087 282.611 233.783 284.702C232.48 286.794 230.541 288.412 228.25 289.32L129.28 327.69Z" fill="#263238"/>
<path opacity="0.5" d="M129.28 327.69L97.87 204C97.2051 201.396 97.4744 198.641 98.631 196.214C99.7875 193.788 101.758 191.844 104.2 190.72C132.06 177.99 179.2 164.34 216.1 164.9C218.963 164.946 221.707 166.057 223.794 168.017C225.882 169.977 227.164 172.645 227.39 175.5L235.49 277.7C235.685 280.157 235.087 282.611 233.783 284.702C232.48 286.794 230.541 288.412 228.25 289.32L129.28 327.69Z" fill="black"/>
<path d="M209 366.64L265.32 342.77C265.818 342.566 266.252 342.232 266.577 341.803C266.901 341.373 267.104 340.865 267.165 340.33C267.225 339.795 267.14 339.254 266.92 338.763C266.699 338.272 266.35 337.85 265.91 337.54L243.73 321.54C243.323 321.25 242.852 321.065 242.357 320.998C241.862 320.932 241.359 320.988 240.89 321.16L183.32 342.97C182.814 343.155 182.367 343.473 182.026 343.891C181.685 344.309 181.463 344.81 181.383 345.343C181.303 345.877 181.369 346.421 181.572 346.92C181.776 347.42 182.11 347.855 182.54 348.18L206 366.25C206.421 366.575 206.92 366.782 207.447 366.851C207.974 366.919 208.51 366.847 209 366.64Z" fill="#263238"/>
<path d="M234.38 328C234.38 328 252.38 330.58 254.48 340.41C256.58 350.24 216.56 350.6 213.05 343.22C209.54 335.84 228.41 328 234.38 328Z" fill="white"/>
<path d="M248.41 337C248.41 337 245.51 323.21 237.29 320.78C229.07 318.35 209.94 321.12 209.94 321.12L170.14 297.74L144.58 315.34L155.92 319.94L155.83 320.08C155.83 320.08 157.69 320.79 160.7 321.88L167.34 324.58L167.64 324.34C178.01 327.93 192.76 332.62 201.39 333.57C201.39 333.57 206.7 339.08 212.14 340.13C212.14 340.13 215.62 340.94 217.59 340.36C219.854 339.512 222.354 339.552 224.59 340.47C227.37 341.63 236.74 346.01 239.01 344.8C241.28 343.59 237.8 339.66 231.43 336.07C231.43 336.07 244.17 339.89 246.84 339.89C249.51 339.89 250.55 339.43 250.43 338.89L248.41 337Z" fill="white"/>
<path d="M162.21 309.16L202.66 330.07C205.26 333.07 208.53 335.77 212.44 336.58C214.543 336.845 216.67 336.875 218.78 336.67C222.254 336.628 225.7 337.3 228.905 338.643C232.109 339.987 235.004 341.973 237.41 344.48C237.41 344.48 235.93 344.9 233.23 343.78C230.53 342.66 223.52 337.78 217.59 340.32C211.66 342.86 201.39 333.53 201.39 333.53C201.39 333.53 159.73 324.9 146.25 315.91L162.21 309.16Z" fill="#407BFF"/>
<path opacity="0.5" d="M162.21 309.16L202.66 330.07C205.26 333.07 208.53 335.77 212.44 336.58C214.543 336.845 216.67 336.875 218.78 336.67C222.254 336.628 225.7 337.3 228.905 338.643C232.109 339.987 235.004 341.973 237.41 344.48C237.41 344.48 235.93 344.9 233.23 343.78C230.53 342.66 223.52 337.78 217.59 340.32C211.66 342.86 201.39 333.53 201.39 333.53C201.39 333.53 159.73 324.9 146.25 315.91L162.21 309.16Z" fill="white"/>
<path d="M228.31 334.37C228.31 334.37 247.18 341.37 249.64 339.62C252.1 337.87 241.77 332.12 230.53 328.26" stroke="#263238" stroke-linecap="round" stroke-linejoin="round"/>
<path d="M236.05 324.7C239.995 326.02 243.526 328.351 246.29 331.46" stroke="#263238" stroke-linecap="round" stroke-linejoin="round"/>
<path d="M248 336.55C248 336.55 245.29 325.3 239.32 321.44C233.35 317.58 209.49 321.18 209.49 321.18L166.24 295.26" stroke="#263238" stroke-linecap="round" stroke-linejoin="round"/>
<path d="M145.36 316C149.68 317.75 155.16 319.85 162.07 322.31C186.64 331.09 201.39 333.55 201.39 333.55C201.39 333.55 210.05 342.65 218.6 339.87C224.36 337.99 235.1 346.54 238.96 344.78C242.82 343.02 233.18 336.31 221.24 331.04" stroke="#263238" stroke-linecap="round" stroke-linejoin="round"/>
<path d="M266.8 274.49L292.37 245.23C292.37 245.23 285.48 232.4 276.91 218.1C268.34 203.8 258.17 188.16 253.84 182.26C241.78 176.37 258.84 248.86 258.84 248.86L266.8 274.49Z" fill="#407BFF"/>
<path d="M292.9 246.56C282 222.84 253.84 181.9 253.84 181.9" stroke="#263238" stroke-linecap="round" stroke-linejoin="round"/>
<path d="M163.53 265.15L185.66 306.49L256.3 279L259 246.2C263 218.4 253.8 181.83 253.8 181.83L207.8 171.94C207.8 171.94 141.8 194.55 140.8 198.83C139.8 203.11 163.53 265.15 163.53 265.15Z" fill="#407BFF"/>
<path d="M163.53 265.15L185.66 306.49L256.3 279L259 246.2C263 218.4 253.8 181.83 253.8 181.83L207.8 171.94C207.8 171.94 141.8 194.55 140.8 198.83C139.8 203.11 163.53 265.15 163.53 265.15Z" stroke="#263238" stroke-miterlimit="10"/>
<path opacity="0.2" d="M149.73 210.93C151.42 214.53 159.73 233.22 162.73 237.93C166.73 204 165.34 200.27 168.39 198.49L182.59 190.21L175.17 185.68L174.83 184.14C174.83 184.14 145.68 195.22 141 199C141 199 144.46 199.75 149.73 210.93Z" fill="black"/>
<path opacity="0.2" d="M291.29 245.3C294.38 243.5 284.21 246.54 281.03 248.19C278.44 249.53 275.64 251.36 272.84 250.54C270.04 249.72 268.57 246.43 267.84 243.54C265.54 234.54 265.38 225.14 263.4 216.07C261.865 209.657 259.829 203.374 257.31 197.28C257.31 197.28 261.78 225.23 258.89 247.23L266 272C266 272 265.42 260.44 291.29 245.3Z" fill="black"/>
<path d="M128.69 297.74C135.95 298.95 143.379 298.689 150.535 296.971C157.692 295.253 164.43 292.114 170.35 287.74C170.35 287.74 169.82 255.89 166.73 247.82C162.73 237.45 144.8 196.95 140.95 199C138.22 200.45 132.59 244.37 129.95 273.4C128.88 285.44 128.32 295 128.69 297.74Z" fill="#407BFF"/>
<path d="M128.69 297.74C135.95 298.95 143.379 298.689 150.535 296.971C157.692 295.253 164.43 292.114 170.35 287.74C170.35 287.74 169.82 255.89 166.73 247.82C162.73 237.45 144.8 196.95 140.95 199C138.22 200.45 132.59 244.37 129.95 273.4C128.88 285.44 128.32 295 128.69 297.74Z" stroke="#263238" stroke-miterlimit="10"/>
<path d="M170.74 239.59C173.665 248.154 174.259 257.341 172.46 266.21" stroke="#263238" stroke-linecap="round" stroke-linejoin="round"/>
<path d="M147.77 273.22C154.307 272.499 160.864 274.402 166 278.51" stroke="#263238" stroke-linecap="round" stroke-linejoin="round"/>
<path d="M155.81 268.39C161.722 271.177 166.664 275.67 170 281.29" stroke="#263238" stroke-linecap="round" stroke-linejoin="round"/>
<path opacity="0.2" d="M147 205.42C151.88 214.63 149.49 226.12 150.73 236.47C151.4 242.05 152.12 247.78 154.82 252.71C156.82 256.29 159.71 259.26 162.03 262.62C164.799 266.661 166.687 271.241 167.57 276.06C161.36 269.8 154.57 263.23 145.91 261.62C150.03 263.72 155.76 268.54 154.29 270.06C151.41 272.78 147.86 266.49 144.89 268.26C143.695 269.146 142.849 270.424 142.5 271.87C141.162 275.892 140.692 280.153 141.12 284.37L127.88 290.48C127.88 290.48 135.88 205.91 140.96 198.97C143.524 200.528 145.613 202.759 147 205.42Z" fill="black"/>
<path d="M255.46 216C257.288 224.409 258.653 232.912 259.55 241.47" stroke="#263238" stroke-linecap="round" stroke-linejoin="round"/>
<path d="M145.87 316.73C145.87 316.73 172.09 305.91 174.87 301.73C177.65 297.55 171.24 282.84 168.08 280.38C164.92 277.92 125.01 285.53 126.08 293.61C127.15 301.69 130.18 300.82 128.97 307.61C128.18 312.06 133.55 322 145.87 316.73Z" fill="white"/>
<path d="M162.46 308.65C166.15 305.8 153.28 310.47 148.62 310.2C147.1 310.11 145.4 309.83 144.49 308.61C144.163 308.098 143.969 307.513 143.925 306.907C143.881 306.301 143.99 305.694 144.24 305.14C144.753 304.042 145.513 303.077 146.46 302.32C149.034 300.158 151.969 298.465 155.13 297.32C156.51 296.79 158.78 296.32 158.13 294.46C156.81 292.46 153.13 294.51 150.82 295.52C148.51 296.53 145.58 297.36 143.57 295.8C141.92 294.52 141.63 292.01 142.43 290.08C143.35 288.195 144.795 286.615 146.59 285.53C147.232 285.167 147.772 284.648 148.16 284.02C148.249 283.861 148.305 283.686 148.325 283.505C148.344 283.324 148.328 283.141 148.275 282.967C148.223 282.792 148.137 282.63 148.021 282.49C147.904 282.35 147.761 282.234 147.6 282.15C147.6 282.15 128.6 287.34 127.23 292.23C125.86 297.12 129.5 303.57 129.5 303.57C129.5 303.57 127.24 311.67 133 316C138.76 320.33 153.91 315.27 162.46 308.65Z" fill="#407BFF"/>
<path opacity="0.7" d="M162.46 308.65C166.15 305.8 153.28 310.47 148.62 310.2C147.1 310.11 145.4 309.83 144.49 308.61C144.163 308.098 143.969 307.513 143.925 306.907C143.881 306.301 143.99 305.694 144.24 305.14C144.753 304.042 145.513 303.077 146.46 302.32C149.034 300.158 151.969 298.465 155.13 297.32C156.51 296.79 158.78 296.32 158.13 294.46C156.81 292.46 153.13 294.51 150.82 295.52C148.51 296.53 145.58 297.36 143.57 295.8C141.92 294.52 141.63 292.01 142.43 290.08C143.35 288.195 144.795 286.615 146.59 285.53C147.232 285.167 147.772 284.648 148.16 284.02C148.249 283.861 148.305 283.686 148.325 283.505C148.344 283.324 148.328 283.141 148.275 282.967C148.223 282.792 148.137 282.63 148.021 282.49C147.904 282.35 147.761 282.234 147.6 282.15C147.6 282.15 128.6 287.34 127.23 292.23C125.86 297.12 129.5 303.57 129.5 303.57C129.5 303.57 127.58 311.64 133.34 316C139.1 320.36 153.91 315.27 162.46 308.65Z" fill="white"/>
<path d="M146.25 316.73C146.25 316.73 172.48 305.91 175.25 301.73C178.02 297.55 171.63 282.84 168.47 280.38C165.31 277.92 125.39 285.53 126.47 293.61C127.55 301.69 130.57 300.82 129.37 307.61C128.57 312.06 133.93 322 146.25 316.73Z" stroke="#263238" stroke-miterlimit="10"/>
<path d="M270 280.65C269.75 280.44 269.51 280.23 269.28 280C262.62 273.51 266.84 265.32 272.28 259.64C277.28 254.4 286.2 246.42 293.72 245.52C297.11 245.11 298.62 246.99 300.59 249.37C301.72 250.73 303.12 251.86 304.21 253.26C305.864 255.469 306.721 258.173 306.641 260.932C306.561 263.69 305.549 266.34 303.77 268.45C300.65 271.9 296.36 273.17 292.24 274.92C287.24 277.03 282.58 280.52 277.5 282.25C276.217 282.647 274.854 282.708 273.541 282.428C272.228 282.148 271.009 281.536 270 280.65Z" fill="white"/>
<path d="M291.4 274.39C295.4 271.3 299.4 268.2 302.12 263.96C303.252 262.411 303.924 260.574 304.06 258.66C304.06 256.75 302.9 254.73 301.06 254.31C299.56 253.96 298.06 254.7 296.66 255.42L292.48 257.6C292.001 257.923 291.424 258.064 290.85 258C290.05 257.8 289.69 256.86 289.64 256C289.51 253.71 290.79 251.6 292.03 249.67L294.31 246.09C294.164 245.953 293.975 245.87 293.776 245.854C293.576 245.838 293.377 245.889 293.21 246C285.387 247.879 278.422 252.33 273.43 258.64C265.43 269.04 264.76 272.64 267.36 277.54C269.96 282.44 274.59 287.46 291.4 274.39Z" fill="#407BFF"/>
<path opacity="0.7" d="M291.4 274.39C295.4 271.32 299.4 268.2 302.12 263.96C303.252 262.411 303.924 260.574 304.06 258.66C304.06 256.75 302.9 254.73 301.06 254.31C299.56 253.96 298.06 254.7 296.66 255.42L292.48 257.6C292.001 257.923 291.424 258.064 290.85 258C290.05 257.8 289.69 256.86 289.64 256C289.51 253.71 290.79 251.6 292.03 249.67L294.31 246.09C294.164 245.953 293.975 245.87 293.776 245.854C293.576 245.838 293.377 245.889 293.21 246C285.387 247.879 278.422 252.33 273.43 258.64C265.43 269.04 264.76 272.64 267.36 277.54C269.96 282.44 274.79 287.16 291.4 274.39Z" fill="white"/>
<path d="M270 280.65C269.75 280.44 269.51 280.23 269.28 280C262.62 273.51 266.84 265.32 272.28 259.64C277.28 254.4 286.2 246.42 293.72 245.52C297.11 245.11 298.62 246.99 300.59 249.37C301.72 250.73 303.12 251.86 304.21 253.26C305.864 255.469 306.721 258.173 306.641 260.932C306.561 263.69 305.549 266.34 303.77 268.45C300.65 271.9 296.36 273.17 292.24 274.92C287.24 277.03 282.58 280.52 277.5 282.25C276.217 282.647 274.854 282.708 273.541 282.428C272.228 282.148 271.009 281.536 270 280.65Z" stroke="#263238" stroke-miterlimit="10"/>
<path d="M170.17 94.19C169.913 91.7536 170.149 89.2905 170.863 86.9471C171.578 84.6038 172.757 82.4282 174.33 80.55C177.519 76.8044 181.667 73.9974 186.33 72.43" stroke="#263238" stroke-linecap="round" stroke-linejoin="round"/>
<path d="M215.69 160.09C215.06 167.58 214.82 185.23 215.26 192.74L187 179.56C188 172.77 188.37 160.43 186.68 153.78L215.68 160.09" fill="white"/>
<path d="M215.69 160.09C215.06 167.58 214.82 185.23 215.26 192.74L187 179.56C188 172.77 188.37 160.43 186.68 153.78L215.68 160.09" stroke="#263238" stroke-miterlimit="10"/>
<path d="M188 158.09C188 158.09 196.36 173.61 205.14 173.9C213.72 174.17 215.64 161.39 215.64 161.39C215.64 161.39 212.08 168.15 208.21 168C204.34 167.85 188 158.09 188 158.09Z" fill="#263238"/>
<path d="M224.6 94.22C224.6 94.22 188.08 86.4 177.75 95.95C167.42 105.5 170 116.14 170 116.14L170.94 119.21C170.678 119.207 170.416 119.234 170.16 119.29C167.41 119.94 164.62 123.29 165.54 128.08C166.46 132.87 172.32 143.39 176.64 142.27C177.131 142.146 177.602 141.954 178.04 141.7C179.48 146.03 180.75 149.62 181.44 151.08C184.19 156.88 205.12 168.95 210.03 167.28C214.94 165.61 227.82 140.6 228.45 134.56C229.08 128.52 224.6 94.22 224.6 94.22Z" fill="white"/>
<path d="M225 99.57C220.58 104.26 213.27 104.84 206.93 103.68C200.59 102.52 194.51 99.95 188.08 99.45C186.318 99.2069 184.523 99.4382 182.88 100.12C180.24 101.4 178.88 104.51 178.88 107.45C178.88 110.39 179.88 113.21 180.88 115.97C181.88 118.73 182.88 121.56 182.88 124.49C182.88 125.85 182.6 127.18 182.55 128.49C182.488 134.146 183.464 139.766 185.43 145.07C189.72 157.02 200.76 161.84 211.83 166.07C211.83 166.07 207.83 169.38 199.93 165.17C197.16 163.7 186.7 156.65 186.7 156.65C183.428 154.557 181.01 151.366 179.88 147.65L177.88 141.37C176.938 141.974 175.803 142.198 174.702 141.998C173.602 141.797 172.618 141.187 171.95 140.29C169.08 137.06 164.78 131.14 165.14 126.48C165.5 121.82 166.33 119.8 170.69 119.48C171.905 119.374 173.123 119.641 174.182 120.245C175.242 120.848 176.092 121.761 176.62 122.86L173.21 102.58C173.21 102.58 183.44 92.89 190.79 94.33C198.14 95.77 214.79 98.45 218.96 97.38C220.916 96.9157 222.838 96.3142 224.71 95.58L225 99.57Z" fill="#407BFF"/>
<path opacity="0.5" d="M225 99.57C220.58 104.26 213.27 104.84 206.93 103.68C200.59 102.52 194.51 99.95 188.08 99.45C186.318 99.2069 184.523 99.4382 182.88 100.12C180.24 101.4 178.88 104.51 178.88 107.45C178.88 110.39 179.88 113.21 180.88 115.97C181.88 118.73 182.88 121.56 182.88 124.49C182.88 125.85 182.6 127.18 182.55 128.49C182.488 134.146 183.464 139.766 185.43 145.07C189.72 157.02 200.75 161.82 211.81 166.07C211.81 166.07 207.71 169.31 201.45 165.82C198.71 164.29 186.7 156.67 186.7 156.67C183.428 154.577 181.01 151.386 179.88 147.67L177.88 141.39C176.938 141.994 175.803 142.218 174.702 142.018C173.602 141.817 172.618 141.207 171.95 140.31C169.08 137.08 164.78 131.16 165.14 126.5C165.5 121.84 165.9 120.32 170.26 120.03C171.479 119.911 172.708 120.115 173.825 120.621C174.941 121.126 175.905 121.915 176.62 122.91L173.21 102.63C173.21 102.63 183.44 92.94 190.79 94.38C198.14 95.82 214.79 98.5 218.96 97.43C220.916 96.9657 222.838 96.3642 224.71 95.63L225 99.57Z" fill="white"/>
<path d="M204.69 127C204.69 128.75 204.05 130.18 203.26 130.18C202.47 130.18 201.82 128.76 201.82 127C201.82 125.24 202.46 123.83 203.25 123.82C204.04 123.81 204.69 125.26 204.69 127Z" fill="#263238"/>
<path d="M220.55 126.19C220.55 127.94 219.91 129.37 219.12 129.37C218.33 129.37 217.69 127.94 217.68 126.19C217.67 124.44 218.32 123.01 219.12 123.01C219.92 123.01 220.55 124.43 220.55 126.19Z" fill="#263238"/>
<path d="M215.75 148.71C213.281 148.413 210.778 148.579 208.37 149.2" stroke="#263238" stroke-linecap="round" stroke-linejoin="round"/>
<path d="M198.52 132.51C199.79 134.57 202.72 134.57 204.46 133.15C205.194 132.452 205.818 131.646 206.31 130.76" stroke="#263238" stroke-width="0.5" stroke-linecap="round" stroke-linejoin="round"/>
<path d="M216.28 130.87C216.711 131.538 217.289 132.098 217.97 132.507C218.652 132.917 219.418 133.164 220.21 133.23C221.174 133.302 222.138 133.097 222.99 132.64" stroke="#263238" stroke-width="0.5" stroke-linecap="round" stroke-linejoin="round"/>
<path d="M197.56 120.9C200.877 120.225 203.971 118.73 206.56 116.55" stroke="#263238" stroke-width="2" stroke-linecap="round" stroke-linejoin="round"/>
<path d="M217.3 113.23C218.625 114.824 220.275 116.116 222.14 117.02" stroke="#263238" stroke-width="2" stroke-linecap="round" stroke-linejoin="round"/>
<path d="M211.8 124.57C212.087 126.637 212.38 128.707 212.68 130.78C212.755 131.678 212.971 132.559 213.32 133.39C213.684 134.119 214.239 134.736 214.926 135.175C215.612 135.613 216.405 135.857 217.22 135.88C217.7 135.818 218.187 135.887 218.63 136.08C218.824 136.217 218.979 136.403 219.079 136.619C219.179 136.835 219.221 137.073 219.2 137.31C219.095 138.118 218.705 138.863 218.1 139.41C217.089 140.521 215.911 141.469 214.61 142.22" stroke="#263238" stroke-linecap="round" stroke-linejoin="round"/>
<path d="M170.14 125.59C171.771 126.952 173.025 128.71 173.782 130.695C174.538 132.681 174.772 134.828 174.46 136.93" stroke="#263238" stroke-linecap="round" stroke-linejoin="round"/>
<path d="M169.55 130.82C169.654 130.591 169.812 130.39 170.011 130.235C170.209 130.08 170.442 129.975 170.69 129.93C171.181 129.825 171.689 129.825 172.18 129.93C172.529 129.985 172.867 130.096 173.18 130.26C173.569 130.511 173.859 130.889 174 131.33" stroke="#263238" stroke-linecap="round" stroke-linejoin="round"/>
<path d="M179.48 134.84C179.48 134.84 181.66 141.08 176.26 142.47C171.95 143.59 166.09 133.08 165.16 128.28C164.881 127.076 164.885 125.824 165.171 124.621C165.457 123.419 166.018 122.299 166.81 121.35C167.592 120.434 168.641 119.787 169.81 119.5C173 118.74 176.18 122.61 178.19 125.79C178.796 126.804 179.463 127.779 180.19 128.71" stroke="#263238" stroke-linecap="round" stroke-linejoin="round"/>
<path d="M177.67 141.89C179.11 146.24 180.37 149.82 181.06 151.28C183.81 157.09 204.74 169.15 209.65 167.48C214.56 165.81 227.44 140.8 228.08 134.76C228.72 128.72 224.26 94.42 224.26 94.42C224.26 94.42 187.74 86.6 177.41 96.15C167.08 105.7 169.62 116.34 169.62 116.34" stroke="#263238" stroke-miterlimit="10"/>
<path d="M233.06 77.74C233.06 77.74 238.7 89.48 231.5 97.47C224.3 105.46 207.84 98.88 207.84 98.88" stroke="#263238" stroke-linecap="round" stroke-linejoin="round"/>
<path d="M226.21 72.39C223.93 73.32 227.83 77.32 222.97 78.55C218.11 79.78 179.53 61.87 169.82 93.07C169.82 93.07 152.53 105.35 166.82 121.35C167.602 120.435 168.651 119.787 169.82 119.5C172.92 118.77 176 122.39 178.02 125.5C178.92 128.1 180.33 130.43 182.48 129.64C186.4 128.22 185.08 123.31 183.48 119.72C182.97 118.58 182.42 117.58 182.01 116.86C179.55 112.58 175.91 107.86 177.57 102.67C180.89 96.44 190.98 95.46 200.57 97.91C216.45 101.96 235.03 96.16 234.74 84.72C234.45 73.28 228.49 71.46 226.21 72.39Z" fill="#263238"/>
<path opacity="0.5" d="M233.49 77.53C233.466 77.4829 233.435 77.4392 233.4 77.4C231.46 72.51 227.87 71.71 226.21 72.4C223.93 73.33 227.83 77.33 222.97 78.56C218.11 79.79 181.35 62.73 170.57 90.95C170.893 87.2461 172.333 83.7276 174.7 80.86C177.823 77.1727 181.892 74.4068 186.47 72.86C186.577 72.8091 186.662 72.7201 186.708 72.6102C186.754 72.5003 186.757 72.3774 186.717 72.2653C186.677 72.1531 186.597 72.0598 186.492 72.0034C186.387 71.947 186.265 71.9315 186.15 71.96C181.422 73.5675 177.221 76.4336 174 80.25C171.15 83.6721 169.593 87.9866 169.6 92.44C166.17 93.175 163.023 94.8764 160.53 97.3431C158.037 99.8098 156.302 102.939 155.53 106.36C155.503 106.483 155.526 106.612 155.593 106.719C155.66 106.826 155.767 106.901 155.89 106.93H155.99C156.099 106.931 156.204 106.894 156.29 106.827C156.375 106.76 156.435 106.666 156.46 106.56C157.177 103.395 158.763 100.493 161.038 98.179C163.313 95.8651 166.188 94.2309 169.34 93.46C166.58 95.68 154.06 107.01 166.85 121.34C167.632 120.425 168.681 119.777 169.85 119.49C172.95 118.76 176.03 122.38 178.05 125.49C178.95 128.09 180.36 130.42 182.51 129.63C186.43 128.21 185.11 123.3 183.51 119.71C183 118.57 182.45 117.57 182.04 116.85C179.58 112.57 175.94 107.85 177.6 102.66C180.92 96.43 191.01 95.45 200.6 97.9C202.857 98.4732 205.159 98.8545 207.48 99.04C207.531 99.1587 207.623 99.2547 207.74 99.31C211.924 100.902 216.345 101.781 220.82 101.91C224.9 101.91 229.08 100.91 231.93 97.77C239.18 89.66 233.55 77.65 233.49 77.53ZM231.14 97.15C225.79 103.09 214.93 100.63 210.25 99.15C222.46 99.34 233.72 94.36 234.63 86.03C234.838 88.0236 234.636 90.0387 234.036 91.9512C233.435 93.8637 232.45 95.6329 231.14 97.15Z" fill="black"/>
<path d="M175.39 99.44C177.94 94.64 183.67 92.28 189.1 92.07C194.53 91.86 199.85 93.41 205.1 94.58C210.35 95.75 216.03 96.58 221.2 94.87C226.37 93.16 230.88 88.38 230.54 82.96" stroke="white" stroke-width="0.5" stroke-linecap="round" stroke-linejoin="round"/>
<path d="M174.35 96C175.26 92.42 178.1 89.64 181.15 87.55C185.826 84.3536 191.206 82.3362 196.83 81.67" stroke="white" stroke-width="0.5" stroke-linecap="round" stroke-linejoin="round"/>
<path d="M204.26 190.17C204.66 189.77 215.85 187.72 215.85 187.72C215.85 187.72 213.94 200.95 214.85 205.72L210.22 206.54C210.22 206.54 205.72 198.22 202.17 195.63C198.62 193.04 204.26 190.17 204.26 190.17Z" fill="#263238"/>
<path d="M210.9 204.34L210.97 260.49L223.63 270.06L229.01 256.52L213.44 203.12L210.9 204.34Z" fill="#263238"/>
<path d="M210.49 181L216.68 172.75C216.764 172.624 216.876 172.518 217.007 172.442C217.138 172.365 217.284 172.319 217.436 172.308C217.587 172.296 217.739 172.319 217.88 172.375C218.021 172.431 218.148 172.518 218.25 172.63L226.16 180.54C226.328 180.697 226.436 180.907 226.467 181.135C226.498 181.362 226.449 181.594 226.33 181.79L216.83 198.73C216.745 198.931 216.597 199.098 216.408 199.207C216.219 199.316 216 199.36 215.784 199.333C215.568 199.306 215.366 199.209 215.21 199.057C215.054 198.904 214.952 198.705 214.92 198.49L210.32 181.9C210.28 181.747 210.274 181.587 210.304 181.431C210.333 181.275 210.397 181.128 210.49 181Z" fill="white"/>
<path d="M210.49 181L216.68 172.75C216.764 172.624 216.876 172.518 217.007 172.442C217.138 172.365 217.284 172.319 217.436 172.308C217.587 172.296 217.739 172.319 217.88 172.375C218.021 172.431 218.148 172.518 218.25 172.63L226.16 180.54C226.328 180.697 226.436 180.907 226.467 181.135C226.498 181.362 226.449 181.594 226.33 181.79L216.83 198.73C216.745 198.931 216.597 199.098 216.408 199.207C216.219 199.316 216 199.36 215.784 199.333C215.568 199.306 215.366 199.209 215.21 199.057C215.054 198.904 214.952 198.705 214.92 198.49L210.32 181.9C210.28 181.747 210.274 181.587 210.304 181.431C210.333 181.275 210.397 181.128 210.49 181Z" stroke="#263238" stroke-linecap="round" stroke-linejoin="round"/>
<path d="M185.21 171.46L209.21 181.02C209.338 181.064 209.456 181.134 209.556 181.226C209.657 181.317 209.737 181.428 209.793 181.551C209.85 181.675 209.88 181.808 209.883 181.944C209.886 182.079 209.861 182.214 209.81 182.34L203.65 199.76C203.607 199.907 203.53 200.042 203.426 200.155C203.322 200.267 203.194 200.355 203.051 200.41C202.907 200.465 202.754 200.486 202.601 200.472C202.448 200.459 202.301 200.41 202.17 200.33L175.17 185.68C175.033 185.615 174.912 185.519 174.818 185.4C174.723 185.281 174.657 185.141 174.624 184.993C174.591 184.845 174.593 184.691 174.629 184.543C174.664 184.395 174.733 184.257 174.83 184.14L184 171.81C184.131 171.622 184.323 171.484 184.543 171.421C184.763 171.357 184.999 171.371 185.21 171.46Z" fill="white"/>
<path d="M185.21 171.46L209.21 181.02C209.338 181.064 209.456 181.134 209.556 181.226C209.657 181.317 209.737 181.428 209.793 181.551C209.85 181.675 209.88 181.808 209.883 181.944C209.886 182.079 209.861 182.214 209.81 182.34L203.65 199.76C203.607 199.907 203.53 200.042 203.426 200.155C203.322 200.267 203.194 200.355 203.051 200.41C202.907 200.465 202.754 200.486 202.601 200.472C202.448 200.459 202.301 200.41 202.17 200.33L175.17 185.68C175.033 185.615 174.912 185.519 174.818 185.4C174.723 185.281 174.657 185.141 174.624 184.993C174.591 184.845 174.593 184.691 174.629 184.543C174.664 184.395 174.733 184.257 174.83 184.14L184 171.81C184.131 171.622 184.323 171.484 184.543 171.421C184.763 171.357 184.999 171.371 185.21 171.46V171.46Z" stroke="#263238" stroke-linecap="round" stroke-linejoin="round"/>
<path d="M265.8 272.27L258.7 248.66" stroke="#263238" stroke-miterlimit="10"/>
<path d="M280.39 280.37L231.39 300.95C230.896 301.163 230.468 301.506 230.152 301.941C229.836 302.377 229.642 302.889 229.592 303.425C229.542 303.961 229.637 304.5 229.867 304.987C230.097 305.473 230.454 305.889 230.9 306.19L268.73 331.34L293.34 306.77L280.39 280.37Z" fill="white" stroke="#263238" stroke-miterlimit="10"/>
<path d="M260 302L254.11 304.31L257.27 306.54L263.17 304.23L260 302ZM260 302L254.11 304.31L257.27 306.54L263.17 304.23L260 302ZM260 302L254.11 304.31L257.27 306.54L263.17 304.23L260 302ZM264 304.83L258.1 307.13L261.53 309.55L267.44 307.24L264 304.83ZM264 304.83L258.1 307.13L261.53 309.55L267.44 307.24L264 304.83ZM264 304.83L258.1 307.13L261.53 309.55L267.44 307.24L264 304.83ZM264 304.83L258.1 307.13L261.53 309.55L267.44 307.24L264 304.83ZM264 304.83L258.1 307.13L261.53 309.55L267.44 307.24L264 304.83ZM264 304.83L258.1 307.13L261.53 309.55L267.44 307.24L264 304.83ZM264 304.83L258.1 307.13L261.53 309.55L267.44 307.24L264 304.83ZM250.78 310L254.27 312.39L260.56 309.93L257.13 307.52L250.78 310ZM264 304.86L258.1 307.16L261.53 309.58L267.44 307.27L264 304.86ZM264 304.86L258.1 307.16L261.53 309.58L267.44 307.27L264 304.86ZM264 304.86L258.1 307.16L261.53 309.58L267.44 307.27L264 304.86ZM264 304.86L258.1 307.16L261.53 309.58L267.44 307.27L264 304.86ZM264 304.86L258.1 307.16L261.53 309.58L267.44 307.27L264 304.86ZM264 304.86L258.1 307.16L261.53 309.58L267.44 307.27L264 304.86ZM268.28 307.86L262.38 310.17L266.31 312.93L272.21 310.62L268.28 307.86ZM269.28 307.48L273.22 310.25L273.5 310.13L274.6 305.41L269.28 307.48ZM268.44 306.89L267.44 307.27L268.28 307.86L269.28 307.48L268.44 306.89ZM268.32 307.89L262.42 310.2L266.35 312.96L272.25 310.65L268.32 307.89ZM268.32 307.89L262.42 310.2L266.35 312.96L272.25 310.65L268.32 307.89ZM268.32 307.89L262.42 310.2L266.35 312.96L272.25 310.65L268.32 307.89ZM274.08 304.71L274.68 305.13L274.85 304.42L274.08 304.71ZM268.44 306.92L267.44 307.3L268.28 307.89L269.28 307.51L268.44 306.92ZM270.65 302.3L265 304.48L268.43 306.89L274.07 304.68L270.65 302.3ZM268.44 306.92L267.44 307.3L268.28 307.89L269.28 307.51L268.44 306.92ZM268.32 307.92L262.42 310.23L266.35 312.99L272.25 310.68L268.32 307.92ZM268.44 306.92L267.44 307.3L268.28 307.89L269.28 307.51L268.44 306.92ZM268.32 307.92L262.42 310.23L266.35 312.99L272.25 310.68L268.32 307.92ZM268.32 307.92L262.42 310.23L266.35 312.99L272.25 310.68L268.32 307.92ZM269.32 307.54L273.26 310.31L272.26 310.68L273.11 311.27L267.2 313.59L266.36 312.99L265.36 313.37L266.21 313.96L260 316.32L263 318.4L269.13 316L269.99 316.6L263.9 319L267.9 321.75L270.33 323.41L270.99 320.54L271.64 317.77L271.85 316.88L272.1 315.78L272.34 314.78L273.14 311.34V311.18L273.32 310.44L273.38 310.16L274.48 305.44L269.32 307.54ZM268.32 307.92L262.42 310.23L266.35 312.99L272.25 310.68L268.32 307.92ZM268.44 306.92L267.44 307.3L268.28 307.89L269.28 307.51L268.44 306.92ZM268.32 307.92L262.42 310.23L266.35 312.99L272.25 310.68L268.32 307.92ZM268.44 306.92L267.44 307.3L268.28 307.89L269.28 307.51L268.44 306.92ZM268.32 307.92L262.42 310.23L266.35 312.99L272.25 310.68L268.32 307.92ZM268.44 306.92L267.44 307.3L268.28 307.89L269.28 307.51L268.44 306.92ZM268.32 307.92L262.42 310.23L266.35 312.99L272.25 310.68L268.32 307.92ZM268.44 306.92L267.44 307.3L268.28 307.89L269.28 307.51L268.44 306.92ZM271.61 301.92L274.88 304.22L275.8 300.28L271.61 301.92ZM266.61 299.47L260.96 301.68L260.12 301.08L265.76 298.88L266.61 299.47L267.61 299.09L266.76 298.5L272.76 296.17L269.76 294.04L263.81 296.39L262.81 296.76L257.12 299L256.12 299.38L250.24 301.7L249.24 302.08L242.76 304.63L245.76 306.68L252.19 304.16L253.04 304.76L246.62 307.27L249.84 309.47L256.21 306.99L257.05 307.58L258.05 307.2L257.21 306.61L263.11 304.3L263.95 304.9L264.95 304.52L264.1 303.92L269.74 301.71L266.61 299.47ZM254.11 304.36L253.25 303.77L259.16 301.46L260 302.05L254.11 304.36ZM273.66 295.79L272.66 296.17L273.51 296.76L274.51 296.38L273.66 295.79ZM274.5 296.38L276.38 297.7L276.89 295.45L274.5 296.38ZM270.63 293.66L273.63 295.79L277.1 294.43L277.96 290.76L270.63 293.66ZM268.41 306.91L267.41 307.29L268.25 307.88L269.25 307.5L268.41 306.91ZM269.77 301.69L266.61 299.47L260.96 301.68L259.96 302.05L263.13 304.28L263.97 304.88L264.97 304.5L264.12 303.9L269.77 301.69ZM270.62 302.29L265 304.48L268.43 306.89L274.07 304.68L270.62 302.29ZM276.16 298.6L273.55 296.76L267.55 299.09L270.71 301.32L269.76 301.69L270.6 302.29L271.6 301.92L270.76 301.32L276.03 299.26L276.16 298.6ZM268.41 306.91L274.05 304.7L270.62 302.29L265 304.48L268.41 306.91ZM269.77 301.69L266.61 299.47L260.96 301.68L259.96 302.05L263.13 304.28L263.97 304.88L264.97 304.5L264.12 303.9L269.77 301.69ZM268.29 307.88L262.39 310.19L266.32 312.95L272.22 310.64L268.29 307.88ZM268.29 307.88L262.39 310.19L266.32 312.95L272.22 310.64L268.29 307.88ZM264.01 304.88L258.11 307.18L261.54 309.6L267.45 307.29L264.01 304.88ZM261.44 310.56L255.13 313L259.13 315.73L265.33 313.31L261.44 310.56ZM261.54 309.56L260.54 309.93L261.4 310.52L262.35 310.15L261.54 309.56ZM268.29 307.84L262.39 310.15L266.32 312.91L272.22 310.6L268.29 307.84ZM269.29 307.46L273.23 310.23L273.51 310.11L274.61 305.39L269.29 307.46ZM268.45 306.87L267.45 307.25L268.29 307.84L269.29 307.46L268.45 306.87ZM260 302L254.11 304.31L257.27 306.54L263.17 304.23L260 302ZM260 302L254.11 304.31L257.27 306.54L263.17 304.23L260 302ZM260 302L254.11 304.31L257.27 306.54L263.17 304.23L260 302Z" fill="#263238"/>
<path d="M268.77 331.34L282.24 272.46C282.491 271.364 283 270.344 283.723 269.483C284.446 268.622 285.364 267.946 286.4 267.51L358.76 237C359.099 236.858 359.47 236.815 359.832 236.876C360.194 236.937 360.532 237.1 360.805 237.345C361.078 237.59 361.276 237.907 361.376 238.261C361.476 238.614 361.474 238.988 361.37 239.34L344 297.94L268.77 331.34Z" fill="#407BFF" stroke="#263238" stroke-miterlimit="10"/>
<path d="M323.12 277.08C325.19 278.27 325.63 281.38 324.12 284.02C322.61 286.66 319.68 287.83 317.61 286.64C315.54 285.45 315.1 282.34 316.61 279.7C318.12 277.06 321.05 275.88 323.12 277.08Z" fill="#263238"/>
</g>
<defs>
<clipPath id="clip0_90_507">
<rect width="398" height="402" fill="white"/>
</clipPath>
</defs>
</svg>
